<svg xmlns="http://www.w3.org/2000/svg" xmlns:xlink="http://www.w3.org/1999/xlink" viewBox="0 0 115.55 33.65"><defs><style>.a,.b{fill:none;}.a{clip-rule:evenodd;}.c,.f,.h,.i,.k,.l,.m,.n,.o{fill-rule:evenodd;}.c{fill:url(#a);}.d,.f{fill:#a3cd39;}.e{fill:#42aa8b;}.g{clip-path:url(#b);}.h{opacity:0.36;fill:url(#c);}.i{opacity:0.71;fill:url(#d);}.j{clip-path:url(#e);}.k{opacity:0.79;fill:url(#f);}.l{opacity:0.47;fill:url(#g);}.m{opacity:0.61;fill:url(#h);}.n{opacity:0.66;fill:url(#i);}.o{opacity:0.39;fill:url(#j);}</style><linearGradient id="a" x1="230.02" y1="-2079.55" x2="208.41" y2="-2042.12" gradientTransform="translate(-167.45 2141.33)" gradientUnits="userSpaceOnUse"><stop offset="0" stop-color="#02a48b"/><stop offset="1" stop-color="#a3cd39"/></linearGradient><clipPath id="b" transform="translate(-22.46 -63.31)"><path class="a" d="M47.08,87.7a8.63,8.63,0,1,0-8.61-8.63,8.64,8.64,0,0,0,8.61,8.63Z"/></clipPath><linearGradient id="c" x1="200.52" y1="-2067.88" x2="220.76" y2="-2067.88" gradientTransform="translate(-167.45 2141.33)" gradientUnits="userSpaceOnUse"><stop offset="0" stop-color="#0492c0"/><stop offset="1" stop-color="#a3cd39"/></linearGradient><linearGradient id="d" x1="220.92" y1="-2058.46" x2="212.95" y2="-2072.27" gradientTransform="translate(-167.45 2141.33)" gradientUnits="userSpaceOnUse"><stop offset="0" stop-color="#90c740"/><stop offset="1" stop-color="#0492c0"/></linearGradient><clipPath id="e" transform="translate(-22.46 -63.31)"><path class="b" d="M93.91,64.86V69H83.58v4.27h9.29v3.94H83.58V81.5H94.23v4.09H79V64.86ZM113.3,75H118v7.35a10.88,10.88,0,0,1-8.54,3.45,10.54,10.54,0,0,1-7.67-3,11,11,0,0,1,.06-15.33,10.52,10.52,0,0,1,7.62-3.09,11.28,11.28,0,0,1,7.76,2.94l-2.41,3.47a9.14,9.14,0,0,0-2.56-1.68,7,7,0,0,0-2.54-.46,6.07,6.07,0,0,0-4.45,1.8,7.18,7.18,0,0,0-.07,9.43,5.6,5.6,0,0,0,4.14,1.76,7.87,7.87,0,0,0,4-.92ZM132,68.86V85.59h-4.63V68.86h-5.87v-4h16.37v4Z"/></clipPath><linearGradient id="f" x1="244.64" y1="-2061.68" x2="283" y2="-2061.68" xlink:href="#c"/><linearGradient id="g" x1="308.15" y1="-2057.32" x2="292.04" y2="-2077.94" xlink:href="#c"/><linearGradient id="h" x1="268.4" y1="-2062.97" x2="284.02" y2="-2075.62" xlink:href="#c"/><linearGradient id="i" x1="292.18" y1="-2056.9" x2="308.57" y2="-2070.18" xlink:href="#c"/><linearGradient id="j" x1="241.38" y1="-2077.5" x2="263.57" y2="-2059.53" xlink:href="#c"/></defs><title>egt_interactive_logo</title><path class="c" d="M32.39,80.53c0-4.49,4.29-10.27,11.52-13.43,12.74-5.57,20-.44,21.92,4.41C67.59,76,64.11,84,58.08,89.88a47.69,47.69,0,0,0,10.25-9.61c3.24-4.27,4.58-8.37,3.35-11.56-1.82-4.7-8.91-6.22-17.91-4.95a67.66,67.66,0,0,0-21.45,6.3C26.15,73.19,23,76.92,22.5,81.17c-.66,6.17,6,14.47,21.09,15.5,7.95.53,15.58.71,30.35-2.87C72.18,93.85,32.23,98.82,32.39,80.53Z" transform="translate(-22.46 -63.31)"/><path class="d" d="M93.91,64.86V69H83.58v4.27h9.29v3.94H83.58V81.5H94.23v4.09H79V64.86Z" transform="translate(-22.46 -63.31)"/><path class="d" d="M113.3,75H118v7.35a10.88,10.88,0,0,1-8.54,3.45,10.54,10.54,0,0,1-7.67-3,11,11,0,0,1,.06-15.33,10.52,10.52,0,0,1,7.62-3.09,11.28,11.28,0,0,1,7.76,2.94l-2.41,3.47a9.14,9.14,0,0,0-2.56-1.68,7,7,0,0,0-2.54-.46,6.07,6.07,0,0,0-4.45,1.8,7.18,7.18,0,0,0-.07,9.43,5.6,5.6,0,0,0,4.14,1.76,7.87,7.87,0,0,0,4-.92Z" transform="translate(-22.46 -63.31)"/><path class="d" d="M132,68.86V85.59h-4.63V68.86h-5.87v-4h16.37v4Z" transform="translate(-22.46 -63.31)"/><path class="e" d="M79,90.78h.88V96H79Z" transform="translate(-22.46 -63.31)"/><path class="e" d="M86,90.78h.88V96H85.9l-3-3.8V96h-.87v-5.2H83l3,3.88Z" transform="translate(-22.46 -63.31)"/><path class="e" d="M91,91.58V96h-.87v-4.4H88.55v-.8h4v.8Z" transform="translate(-22.46 -63.31)"/><path class="e" d="M97.93,90.78v.82H95.16V93h2.49v.78H95.16v1.39H98V96H94.28v-5.2Z" transform="translate(-22.46 -63.31)"/><path class="e" d="M104,92.47a1.5,1.5,0,0,1-1.12,1.62L104.28,96h-1.12l-1.24-1.75h-1.15V96h-.88v-5.2h1.93a2.81,2.81,0,0,1,1.71.4A1.55,1.55,0,0,1,104,92.47Zm-1.17.73a.92.92,0,0,0,.27-.74.78.78,0,0,0-.28-.7,1.88,1.88,0,0,0-1-.19h-1.11v1.86h1.09A1.56,1.56,0,0,0,102.87,93.2Z" transform="translate(-22.46 -63.31)"/><path class="e" d="M106.79,94.8,106.26,96h-.93l2.29-5.2h.94l2.29,5.2h-.94l-.52-1.18ZM109,94l-.94-2.15-1,2.15Z" transform="translate(-22.46 -63.31)"/><path class="e" d="M114.69,95.18a1.87,1.87,0,0,0,.78-.15,2.5,2.5,0,0,0,.68-.49l.57.58a2.61,2.61,0,0,1-2,.92,2.65,2.65,0,0,1-1.95-.76,2.75,2.75,0,0,1,0-3.85,2.74,2.74,0,0,1,2-.78,2.63,2.63,0,0,1,2,.89l-.56.61a2.36,2.36,0,0,0-.7-.49,1.87,1.87,0,0,0-.78-.15,1.89,1.89,0,0,0-1.32.51,1.73,1.73,0,0,0-.54,1.31,1.78,1.78,0,0,0,.54,1.32A1.69,1.69,0,0,0,114.69,95.18Z" transform="translate(-22.46 -63.31)"/><path class="e" d="M120.5,91.58V96h-.88v-4.4H118v-.8h4v.8Z" transform="translate(-22.46 -63.31)"/><path class="e" d="M123.77,90.78h.88V96h-.88Z" transform="translate(-22.46 -63.31)"/><path class="e" d="M129.21,96h-1l-2.09-5.2h1l1.6,3.88,1.6-3.88h1Z" transform="translate(-22.46 -63.31)"/><path class="e" d="M136.44,90.78v.82h-2.77V93h2.49v.78h-2.49v1.39h2.86V96h-3.74v-5.2Z" transform="translate(-22.46 -63.31)"/><path class="f" d="M47.09,87.72a8.61,8.61,0,1,0-8.61-8.61,8.62,8.62,0,0,0,8.61,8.61Z" transform="translate(-22.46 -63.31)"/><g class="g"><path class="f" d="M47.08,87.54a8.63,8.63,0,1,0-8.61-8.63,8.64,8.64,0,0,0,8.61,8.63Z" transform="translate(-22.46 -63.31)"/><path class="h" d="M43.19,83.58A10.14,10.14,0,1,0,33.07,73.45,10.15,10.15,0,0,0,43.19,83.58Z" transform="translate(-22.46 -63.31)"/><path class="i" d="M49.48,84a8,8,0,1,0-8-8,8,8,0,0,0,8,8Z" transform="translate(-22.46 -63.31)"/></g><g class="j"><path class="k" d="M115.55,86c-1.08-7.1-9.28-12.64-19.18-12.64S78.27,78.87,77.19,86Z" transform="translate(-22.46 -63.31)"/><path class="l" d="M122.93,64.69c-2.3,4.31-1.57,10.44,2.23,15.31,3.41,4.38,8.43,6.58,12.85,6.12V64.69Z" transform="translate(-22.46 -63.31)"/><path class="m" d="M115.38,64.29H102.69c-4,3.89-5.5,9.39-1.81,14a10.11,10.11,0,0,0,14.19,1.32c4.44-3.53,4.13-10.55.76-14.8Q115.61,64.53,115.38,64.29Z" transform="translate(-22.46 -63.31)"/><path class="n" d="M138,67.31a12.57,12.57,0,0,0-10,2.78c-5,3.94-6.46,10.37-3.33,14.3,2.84,3.58,8.56,3.9,13.31,1Z" transform="translate(-22.46 -63.31)"/><path class="o" d="M73.21,64.73c-3.13,5.07-1.4,12.48,4.24,17.16,6.07,5,14.42,5,18.6,0,3.88-4.68,2.81-12.1-2.23-17.17Z" transform="translate(-22.46 -63.31)"/></g></svg>