<svg xmlns="http://www.w3.org/2000/svg" xmlns:xlink="http://www.w3.org/1999/xlink" viewBox="0 0 141 141"><defs><style>.a,.b,.c,.d{stroke-miterlimit:10;}.a{fill:url(#a);stroke:url(#b);}.b,.c{fill:none;opacity:0.6;}.b,.c,.d{stroke:#fff;}.b{stroke-width:5px;}.c{stroke-width:3px;}</style><radialGradient id="a" cx="63" cy="63" fx="55.41055570374086" fy="54.53820578463143" r="70.88" gradientUnits="userSpaceOnUse"><stop offset="0" stop-color="#b1d1fb"/><stop offset="0.46" stop-color="#0b6ffa"/><stop offset="0.7" stop-color="#0846aa"/><stop offset="1" stop-color="#151538"/></radialGradient><linearGradient id="b" x1="9.44" y1="35.24" x2="131.56" y2="105.76" gradientUnits="userSpaceOnUse"><stop offset="0" stop-color="#b8d2f5"/><stop offset="0.51" stop-color="#151538"/></linearGradient></defs><title>ball_51</title><circle class="a" cx="70.5" cy="70.5" r="70"/><circle class="b" cx="64.75" cy="67.25" r="50.75"/><circle class="c" cx="65" cy="67.5" r="57.5"/><path class="d" d="M38.4,71.18c3.16-11,6.67-22.25,10.21-33.59,10,2.18,20.18,4.91,30.55,7.92q-1.44,5.82-3,11.66c-6.66-1.84-13.28-3.61-19.85-5.25-.88,3.11-1.77,6.21-2.65,9.31l.16,0a12.43,12.43,0,0,1,8-.56c9.6,2.52,13.14,8.93,10.42,19q-1.18,4.4-2.35,8.78a35.57,35.57,0,0,1-4.59,10.81,12.66,12.66,0,0,1-7.23,5.37c-2.94.81-6.52.54-10.79-.78-5.57-1.73-9.62-4.37-12.09-7.82s-3.11-7.65-1.76-12.77c.46-1.73.93-3.46,1.41-5.21q6.81,1.78,13.62,3.64-.78,3-1.53,5.89c-.79,3.08.1,5,2.62,5.72s4.17-.47,5-3.6q1.73-6.7,3.55-13.48c.85-3.15,0-5.07-2.51-5.72s-4.22.59-5.08,3.71C46.5,73.23,42.45,72.18,38.4,71.18Z" transform="translate(-8.5 -9.5)"/><path class="d" d="M82,62.82q1.14-4.4,2.24-8.79c6.46,1.47,10.89.45,13.15-3.05,3.92,1.2,7.86,2.43,11.81,3.65C104.79,74.1,98.46,94.46,92.1,115.18q-6.39-1.44-12.91-3.14c4.28-15.6,8.8-31.16,12.74-46.45Z" transform="translate(-8.5 -9.5)"/></svg>