<svg xmlns="http://www.w3.org/2000/svg" xmlns:xlink="http://www.w3.org/1999/xlink" viewBox="0 0 141 141"><defs><style>.a,.b,.c,.d{stroke-miterlimit:10;}.a{fill:url(#a);stroke:url(#b);}.b,.c{fill:none;opacity:0.6;}.b,.c,.d{stroke:#fff;}.b{stroke-width:5px;}.c{stroke-width:3px;}</style><radialGradient id="a" cx="63" cy="63" fx="55.41055570374086" fy="54.53820578463143" r="70.88" gradientUnits="userSpaceOnUse"><stop offset="0" stop-color="#b1d1fb"/><stop offset="0.46" stop-color="#0b6ffa"/><stop offset="0.7" stop-color="#0846aa"/><stop offset="1" stop-color="#151538"/></radialGradient><linearGradient id="b" x1="9.44" y1="35.24" x2="131.56" y2="105.76" gradientUnits="userSpaceOnUse"><stop offset="0" stop-color="#b8d2f5"/><stop offset="0.51" stop-color="#151538"/></linearGradient></defs><title>ball_22</title><circle class="a" cx="70.5" cy="70.5" r="70"/><circle class="b" cx="64.75" cy="67.25" r="50.75"/><circle class="c" cx="65" cy="67.5" r="57.5"/><path class="d" d="M40.19,57.9q.73-2.41,1.5-4.84c2.25-6.12,5.16-10.34,8.62-12.57s8-2.65,13.84-1.11c5.21,1.39,8.91,3.94,11.08,7.54s2.6,8.1,1.18,13.53a22,22,0,0,1-4.49,9.16,29.89,29.89,0,0,1-7.38,5.87q-4.43,2.55-9,5.15a36.82,36.82,0,0,0-7.78,5.73,13,13,0,0,0-1.24,1.49,12.06,12.06,0,0,0-1.07,1.53c7.1,2,14.18,4,21.22,5.88-1,3.9-2,7.79-3,11.68C52,103.61,40.16,100,28.21,96.5c.28-1.22.56-2.44.85-3.66,1.65-5.72,4.09-10.17,7.12-13.32a54.18,54.18,0,0,1,12-9,92.05,92.05,0,0,0,10.16-6.48q2.76-2.2,4.15-7.27c1.08-3.91.35-6.2-2.16-6.85s-4.31,1-5.44,4.89c-.6,2.08-1.19,4.16-1.79,6.23Q46.6,59.41,40.19,57.9Z" transform="translate(-8.5 -9.5)"/><path class="d" d="M78.53,67.79q.64-2.45,1.28-4.89c2-6.17,4.58-10.28,8-12.31s8-2.11,14.08-.25c5.43,1.67,9.36,4.31,11.72,7.83s3,7.8,1.59,13a20.17,20.17,0,0,1-4.48,8.78,31.12,31.12,0,0,1-7.43,5.75q-4.44,2.55-9.07,5.21a37.48,37.48,0,0,0-7.88,5.89A13.9,13.9,0,0,0,85,98.3a14.81,14.81,0,0,0-1.11,1.58c7,1.8,13.87,3.5,20.69,5-1.23,3.84-2.49,7.71-3.77,11.58-11.14-2.44-22.58-5.45-34.21-8.73.32-1.29.65-2.58,1-3.87,1.83-6,4.29-10.68,7.33-13.94a51,51,0,0,1,11.95-9.15A98.43,98.43,0,0,0,97,74.43c1.82-1.43,3.17-3.79,4-7.08,1-3.81.12-6.07-2.45-6.81s-4.33.81-5.3,4.65c-.53,2.06-1.06,4.11-1.6,6.17Z" transform="translate(-8.5 -9.5)"/></svg>