<svg xmlns="http://www.w3.org/2000/svg" xmlns:xlink="http://www.w3.org/1999/xlink" viewBox="0 0 141 141"><defs><style>.a,.b,.c,.d{stroke-miterlimit:10;}.a{fill:url(#a);stroke:url(#b);}.b,.c{fill:none;opacity:0.6;}.b,.c,.d{stroke:#fff;}.b{stroke-width:5px;}.c{stroke-width:3px;}</style><radialGradient id="a" cx="63" cy="63" fx="55.41055570374086" fy="54.53820578463143" r="70.88" gradientUnits="userSpaceOnUse"><stop offset="0" stop-color="#b1d1fb"/><stop offset="0.46" stop-color="#0b6ffa"/><stop offset="0.7" stop-color="#0846aa"/><stop offset="1" stop-color="#151538"/></radialGradient><linearGradient id="b" x1="9.44" y1="35.24" x2="131.56" y2="105.76" gradientUnits="userSpaceOnUse"><stop offset="0" stop-color="#b8d2f5"/><stop offset="0.51" stop-color="#151538"/></linearGradient></defs><title>ball_18</title><circle class="a" cx="70.5" cy="70.5" r="70"/><circle class="b" cx="64.75" cy="67.25" r="50.75"/><circle class="c" cx="65" cy="67.5" r="57.5"/><path class="d" d="M43.52,54.33q1.4-4.34,2.83-8.7c6.21.82,10.63-.49,13.11-4.27q5.59,1.3,11.29,2.84C65.24,65,59.09,85.76,54.51,105.89c-4.46-1.4-8.94-2.85-13.45-4.32C44.24,87,48.6,71.87,53.19,56.44,50,55.69,46.73,55,43.52,54.33Z" transform="translate(-8.5 -9.5)"/><path class="d" d="M64.4,93.22,65.75,88a24,24,0,0,1,3.45-7.9q2.16-3,7.22-3.53-5.57-4.2-4-11.51c.39-1.42.77-2.85,1.15-4.27A28.15,28.15,0,0,1,76.29,54a11.24,11.24,0,0,1,6-4.74c2.87-1.1,6.77-.87,11.8.71s8.61,3.69,10.68,6.18S108,61,108.1,63.31a23.43,23.43,0,0,1-.78,6.93c-.36,1.35-.72,2.71-1.09,4.07a10.78,10.78,0,0,1-3,4.76A11.11,11.11,0,0,1,96.74,82c2.81,1.83,4.38,3.8,4.69,6s-.09,5.13-1.24,8.92c-.53,1.71-1,3.42-1.58,5.14-1.5,4.85-4.15,8.4-7.86,10.57s-8.13,2.62-13.41,1.19-9-4.08-11.29-7.78A15.76,15.76,0,0,1,64.4,93.22ZM80.79,88c-.9,3.35-1.82,6.7-2.72,10.06-.72,2.69,0,4.33,2.17,4.9s3.61-.52,4.36-3.21q1.4-5,2.8-10c.75-2.68,0-4.3-2.2-4.88S81.52,85.33,80.79,88Zm6.53-24.48q-.73,2.85-1.49,5.72c-.7,2.67,0,4.31,2.27,4.91s3.68-.44,4.38-3.09q.75-2.83,1.47-5.67c.67-2.63-.12-4.26-2.32-4.9S88,60.87,87.32,63.54Z" transform="translate(-8.5 -9.5)"/></svg>