<svg xmlns="http://www.w3.org/2000/svg" xmlns:xlink="http://www.w3.org/1999/xlink" viewBox="0 0 141 141"><defs><style>.a,.b,.c,.d{stroke-miterlimit:10;}.a{fill:url(#a);stroke:url(#b);}.b,.c{fill:none;opacity:0.6;}.b,.c,.d{stroke:#fff;}.b{stroke-width:5px;}.c{stroke-width:3px;}.d{stroke-width:0.96px;}</style><radialGradient id="a" cx="63" cy="63" fx="55.41055570374086" fy="54.53820578463143" r="70.88" gradientUnits="userSpaceOnUse"><stop offset="0" stop-color="#b1d1fb"/><stop offset="0.46" stop-color="#0b6ffa"/><stop offset="0.7" stop-color="#0846aa"/><stop offset="1" stop-color="#151538"/></radialGradient><linearGradient id="b" x1="9.44" y1="35.24" x2="131.56" y2="105.76" gradientUnits="userSpaceOnUse"><stop offset="0" stop-color="#b8d2f5"/><stop offset="0.51" stop-color="#151538"/></linearGradient></defs><title>ball_54</title><circle class="a" cx="70.5" cy="70.5" r="70"/><circle class="b" cx="64.75" cy="67.25" r="50.75"/><circle class="c" cx="65" cy="67.5" r="57.5"/><path class="d" d="M40.22,71.11c3.16-11,6.64-22.26,10.14-33.62,9.19,2,18.57,4.49,28.1,7.26q-1.45,5.82-3,11.66c-6.12-1.69-12.21-3.31-18.25-4.81-.88,3.11-1.77,6.22-2.64,9.31l.14,0a10.92,10.92,0,0,1,7.45-.72c8.83,2.31,12,8.62,9.25,18.73l-2.34,8.78a38.15,38.15,0,0,1-4.45,10.83A12.44,12.44,0,0,1,57.85,104c-2.74.86-6.05.67-10-.55-5.13-1.61-8.83-4.15-11-7.52s-2.73-7.55-1.38-12.66q.69-2.59,1.41-5.21,6.27,1.64,12.54,3.34-.8,3-1.54,5.88c-.8,3.09,0,5,2.31,5.63s3.87-.54,4.67-3.66c1.15-4.48,2.35-9,3.56-13.48.85-3.15.12-5-2.2-5.64s-3.92.67-4.78,3.79C47.67,73,43.94,72,40.22,71.11Z" transform="translate(-8.5 -9.5)"/><path class="d" d="M69.12,96.13q1.71-6.51,3.47-13A96.88,96.88,0,0,0,83,66.71a102.45,102.45,0,0,0,7.54-18.36q6.63,2,13.33,4.15a62.77,62.77,0,0,1-9.45,17.68,117.86,117.86,0,0,1-15,16.67c3.12.82,6.23,1.63,9.33,2.41.8-2.83,1.59-5.66,2.37-8.47a61.87,61.87,0,0,0,7.12-7.66,45,45,0,0,0,5.26-7.95l4.89,1.38c-2.18,8.41-4.65,17-7.27,25.69,1.43.33,2.86.66,4.29,1q-1.69,5.46-3.46,11c-1.4-.29-2.81-.58-4.21-.89q-1.8,5.84-3.64,11.71c-3.92-.83-7.88-1.76-11.86-2.76q1.65-5.91,3.34-11.8Q77.4,98.42,69.12,96.13Z" transform="translate(-8.5 -9.5)"/></svg>