<svg xmlns="http://www.w3.org/2000/svg" xmlns:xlink="http://www.w3.org/1999/xlink" viewBox="0 0 141 141"><defs><style>.a,.b,.c,.d{stroke-miterlimit:10;}.a{fill:url(#a);stroke:url(#b);}.b,.c{fill:none;opacity:0.6;}.b,.c,.d{stroke:#fff;}.b{stroke-width:5px;}.c{stroke-width:3px;}</style><radialGradient id="a" cx="63" cy="63" fx="55.41055570374086" fy="54.53820578463143" r="70.88" gradientUnits="userSpaceOnUse"><stop offset="0" stop-color="#b1d1fb"/><stop offset="0.46" stop-color="#0b6ffa"/><stop offset="0.7" stop-color="#0846aa"/><stop offset="1" stop-color="#151538"/></radialGradient><linearGradient id="b" x1="9.44" y1="35.24" x2="131.56" y2="105.76" gradientUnits="userSpaceOnUse"><stop offset="0" stop-color="#b8d2f5"/><stop offset="0.51" stop-color="#151538"/></linearGradient></defs><title>ball_24</title><circle class="a" cx="70.5" cy="70.5" r="70"/><circle class="b" cx="64.75" cy="67.25" r="50.75"/><circle class="c" cx="65" cy="67.5" r="57.5"/><path class="d" d="M41.65,57c.49-1.61,1-3.23,1.48-4.84C45.36,46,48.25,41.79,51.7,39.56s8-2.65,13.83-1.07c5.23,1.41,8.94,4,11.13,7.58s2.64,8.11,1.23,13.52a21.65,21.65,0,0,1-4.47,9.15A29.89,29.89,0,0,1,66,74.61q-4.41,2.55-9,5.15a37.6,37.6,0,0,0-7.79,5.73A15.53,15.53,0,0,0,48,87a11.38,11.38,0,0,0-1.07,1.53c7.1,2,14.17,4,21.2,5.88q-1.55,5.85-3,11.69c-11.63-3.3-23.46-6.9-35.4-10.49.28-1.21.56-2.43.85-3.66,1.65-5.71,4.08-10.16,7.11-13.3a53.88,53.88,0,0,1,12-9,91.13,91.13,0,0,0,10.15-6.48q2.74-2.2,4.13-7.27C65,52,64.27,49.7,61.75,49s-4.31,1-5.42,4.89q-.9,3.12-1.77,6.23Q48.07,58.51,41.65,57Z" transform="translate(-8.5 -9.5)"/><path class="d" d="M70.2,94.88q1.72-6.52,3.49-13A90.58,90.58,0,0,0,84.53,65.6a93.36,93.36,0,0,0,7.68-18.29c4.8,1.46,9.63,3,14.49,4.46A57.6,57.6,0,0,1,97,69.34,112.16,112.16,0,0,1,81.16,85.76q5.09,1.33,10.14,2.62,1.22-4.23,2.38-8.45a60.13,60.13,0,0,0,7.52-7.54,41.52,41.52,0,0,0,5.48-7.87L112,66c-2.13,8.42-4.6,17-7.26,25.66l4.66,1.07q-1.73,5.45-3.55,10.94l-4.56-1c-1.23,3.87-2.49,7.77-3.75,11.67q-6.37-1.38-12.86-3,1.69-5.9,3.41-11.78Q79.21,97.34,70.2,94.88Z" transform="translate(-8.5 -9.5)"/></svg>