<svg xmlns="http://www.w3.org/2000/svg" xmlns:xlink="http://www.w3.org/1999/xlink" viewBox="0 0 141 141"><defs><style>.a,.b,.c,.d{stroke-miterlimit:10;}.a{fill:url(#a);stroke:url(#b);}.b,.c{fill:none;opacity:0.6;}.b,.c,.d{stroke:#fff;}.b{stroke-width:5px;}.c{stroke-width:3px;}</style><radialGradient id="a" cx="63" cy="63" fx="55.41055570374086" fy="54.53820578463143" r="70.88" gradientUnits="userSpaceOnUse"><stop offset="0" stop-color="#b1d1fb"/><stop offset="0.46" stop-color="#0b6ffa"/><stop offset="0.7" stop-color="#0846aa"/><stop offset="1" stop-color="#151538"/></radialGradient><linearGradient id="b" x1="9.44" y1="35.24" x2="131.56" y2="105.76" gradientUnits="userSpaceOnUse"><stop offset="0" stop-color="#b8d2f5"/><stop offset="0.51" stop-color="#151538"/></linearGradient></defs><title>ball_02</title><circle class="a" cx="70.5" cy="70.5" r="70"/><circle class="b" cx="64.75" cy="67.25" r="50.75"/><circle class="c" cx="65" cy="67.5" r="57.5"/><path class="d" d="M57.29,63.77l1.38-4.89c2.08-6.2,4.83-10.46,8.2-12.63s7.92-2.39,13.81-.42C86,47.6,89.8,50.47,92.12,54.1S95,62,93.69,67.15a20.05,20.05,0,0,1-4.4,8.74,31.25,31.25,0,0,1-7.37,5.75l-9,5.19a37.4,37.4,0,0,0-7.79,5.82,12.55,12.55,0,0,0-1.24,1.51,12.77,12.77,0,0,0-1.07,1.54c7,2,14,3.9,20.92,5.44-1.12,3.89-2.25,7.8-3.36,11.73a310.84,310.84,0,0,1-34.67-10.39c.28-1.2.56-2.41.85-3.63,1.64-5.65,4-10.08,7.06-13.22a54,54,0,0,1,11.91-9,96.58,96.58,0,0,0,10.11-6.43c1.82-1.44,3.17-3.83,4-7.16,1-3.84.18-6.15-2.36-6.91S73,57,72,60.86c-.54,2.08-1.09,4.17-1.65,6.25C66,65.93,61.61,64.8,57.29,63.77Z" transform="translate(-8.5 -9.5)"/></svg>