<svg xmlns="http://www.w3.org/2000/svg" xmlns:xlink="http://www.w3.org/1999/xlink" viewBox="0 0 141 141"><defs><style>.a,.b,.c,.d{stroke-miterlimit:10;}.a{fill:url(#a);stroke:url(#b);}.b,.c{fill:none;opacity:0.6;}.b,.c,.d{stroke:#fff;}.b{stroke-width:5px;}.c{stroke-width:3px;}</style><radialGradient id="a" cx="63" cy="63" fx="55.41055570374086" fy="54.53820578463143" r="70.88" gradientUnits="userSpaceOnUse"><stop offset="0" stop-color="#b1d1fb"/><stop offset="0.46" stop-color="#0b6ffa"/><stop offset="0.7" stop-color="#0846aa"/><stop offset="1" stop-color="#151538"/></radialGradient><linearGradient id="b" x1="9.44" y1="35.24" x2="131.56" y2="105.76" gradientUnits="userSpaceOnUse"><stop offset="0" stop-color="#b8d2f5"/><stop offset="0.51" stop-color="#151538"/></linearGradient></defs><title>ball_71</title><circle class="a" cx="70.5" cy="70.5" r="70"/><circle class="b" cx="64.75" cy="67.25" r="50.75"/><circle class="c" cx="65" cy="67.5" r="57.5"/><path class="d" d="M42.64,48.87q1.81-5.76,3.7-11.59c11.31,2.28,22.92,5.35,34.73,8.78q-1.29,5.23-2.65,10.47-3,3-5,5.16A78.65,78.65,0,0,0,65.3,72.36a119.24,119.24,0,0,0-7,12.33,105.19,105.19,0,0,0-5.18,12.57q-.35,1.06-.87,2.73c-.35,1.11-.76,2.42-1.22,3.92q-7.41-2.3-14.91-4.68c.39-1.47,1-3.49,2-6.1a78.23,78.23,0,0,1,8.74-16.82,204.4,204.4,0,0,1,13.32-17.1c.5-.6,1.14-1.33,1.9-2.18l2.6-2.93C57.26,52.17,49.9,50.39,42.64,48.87Z" transform="translate(-8.5 -9.5)"/><path class="d" d="M81.93,62.83q1.14-4.41,2.25-8.8c6.46,1.46,10.9.44,13.18-3.07l11.8,3.67C104.69,74.1,98.38,94.48,92.1,115.22c-4.27-1-8.58-2-12.93-3.14,4.24-15.61,8.74-31.18,12.71-46.49Z" transform="translate(-8.5 -9.5)"/></svg>