<svg xmlns="http://www.w3.org/2000/svg" xmlns:xlink="http://www.w3.org/1999/xlink" viewBox="0 0 141 141"><defs><style>.a,.b,.c,.d{stroke-miterlimit:10;}.a{fill:url(#a);stroke:url(#b);}.b,.c{fill:none;opacity:0.6;}.b,.c,.d{stroke:#fff;}.b{stroke-width:5px;}.c{stroke-width:3px;}</style><radialGradient id="a" cx="63" cy="63" fx="55.41055570374086" fy="54.53820578463143" r="70.88" gradientUnits="userSpaceOnUse"><stop offset="0" stop-color="#b1d1fb"/><stop offset="0.46" stop-color="#0b6ffa"/><stop offset="0.7" stop-color="#0846aa"/><stop offset="1" stop-color="#151538"/></radialGradient><linearGradient id="b" x1="9.44" y1="35.24" x2="131.56" y2="105.76" gradientUnits="userSpaceOnUse"><stop offset="0" stop-color="#b8d2f5"/><stop offset="0.51" stop-color="#151538"/></linearGradient></defs><title>ball_39</title><circle class="a" cx="70.5" cy="70.5" r="70"/><circle class="b" cx="64.75" cy="67.25" r="50.75"/><circle class="c" cx="65" cy="67.5" r="57.5"/><path class="d" d="M31.51,83.38q.75-2.82,1.54-5.67,6.81,1.76,13.62,3.59c-.56,2.12-1.12,4.24-1.66,6.35-.78,3.08.12,5,2.64,5.71s4.17-.48,5-3.6c.37-1.45.75-2.91,1.13-4.37.94-3.6,1-6.14.24-7.61s-3.06-2.7-6.79-3.67Q48.58,69,50.06,64l2.43.61a7.21,7.21,0,0,0,4.56-.23,4.38,4.38,0,0,0,2.74-3l1.44-5.14c.79-2.85.11-4.56-2-5.11-2.31-.58-3.9.66-4.79,3.71l-1.14,3.94Q46.61,57,40,55.52c1.69-6.39,4.37-10.93,7.84-13.58s8.27-3.26,14.58-1.63c5.21,1.36,9,3.72,11.23,6.94s2.73,7.67,1.24,13.31a22.73,22.73,0,0,1-3.61,8,10.84,10.84,0,0,1-7,3.85,9.2,9.2,0,0,1,4.56,6.68,26.48,26.48,0,0,1-1,9.86q-2.73,10.35-7.68,14.13c-3.31,2.52-8.17,2.78-14.74.77-5.58-1.71-9.65-4.33-12.14-7.76S30.16,88.49,31.51,83.38Z" transform="translate(-8.5 -9.5)"/><path class="d" d="M113.17,71.18c-2.72,10.34-6,20.88-9.37,31.58a17.91,17.91,0,0,1-8,10.5c-3.74,2.16-8.16,2.63-13.42,1.27C72,111.79,67.9,104.86,70.69,94.25Q77,96,83.19,97.58c-1,3.48-.21,5.55,2.24,6.18s4.19-.82,5.21-4.29q1-3.51,2-7l-.11-.2a8.61,8.61,0,0,1-4,2,11.8,11.8,0,0,1-4.77-.42c-4.8-1.25-7.76-3.56-8.86-6.88s-1-7.69.25-13.11c1.09-4.09,2.18-8.17,3.24-12.25,1.28-4.89,3.74-8.33,7.41-10.25s8.16-2,13.64-.37a24.85,24.85,0,0,1,8.91,4.7,14.93,14.93,0,0,1,4.8,7.08A15.3,15.3,0,0,1,113.17,71.18ZM95.38,81.07q2.06-7.42,3.93-14.76c.67-2.62-.13-4.24-2.34-4.88s-3.63.38-4.3,3c-1.25,4.93-2.57,9.89-3.92,14.86q-1.09,4,2.21,4.88C93.17,84.77,94.65,83.72,95.38,81.07Z" transform="translate(-8.5 -9.5)"/></svg>