<svg xmlns="http://www.w3.org/2000/svg" xmlns:xlink="http://www.w3.org/1999/xlink" viewBox="0 0 141 141"><defs><style>.a,.b,.c,.d{stroke-miterlimit:10;}.a{fill:url(#a);stroke:url(#b);}.b,.c{fill:none;opacity:0.6;}.b,.c,.d{stroke:#fff;}.b{stroke-width:5px;}.c{stroke-width:3px;}</style><radialGradient id="a" cx="63" cy="63" fx="55.41055570374086" fy="54.53820578463143" r="70.88" gradientUnits="userSpaceOnUse"><stop offset="0" stop-color="#b1d1fb"/><stop offset="0.46" stop-color="#0b6ffa"/><stop offset="0.7" stop-color="#0846aa"/><stop offset="1" stop-color="#151538"/></radialGradient><linearGradient id="b" x1="9.44" y1="35.24" x2="131.56" y2="105.76" gradientUnits="userSpaceOnUse"><stop offset="0" stop-color="#b8d2f5"/><stop offset="0.51" stop-color="#151538"/></linearGradient></defs><title>ball_34</title><circle class="a" cx="70.5" cy="70.5" r="70"/><circle class="b" cx="64.75" cy="67.25" r="50.75"/><circle class="c" cx="65" cy="67.5" r="57.5"/><path class="d" d="M31.59,83.38q.75-2.84,1.55-5.67Q40,79.45,46.76,81.28q-.85,3.18-1.68,6.35c-.8,3.09.09,5,2.62,5.72s4.17-.48,5-3.61q.55-2.17,1.14-4.38c1-3.6,1-6.15.25-7.62s-3-2.7-6.79-3.66Q48.69,69,50.15,63.9l2.43.61a7.21,7.21,0,0,0,4.56-.23,4.37,4.37,0,0,0,2.74-3.06q.7-2.56,1.42-5.14c.78-2.85.09-4.56-2.06-5.11-2.3-.59-3.89.66-4.77,3.71-.38,1.32-.76,2.63-1.13,4-4.43-1.11-8.84-2.17-13.23-3.15,1.68-6.39,4.33-10.95,7.79-13.61s8.25-3.28,14.57-1.63c5.21,1.37,9,3.75,11.26,7s2.75,7.67,1.28,13.3a22.76,22.76,0,0,1-3.6,8,10.85,10.85,0,0,1-7,3.86A9.2,9.2,0,0,1,69,79.1,26.48,26.48,0,0,1,68,89q-2.76,10.35-7.74,14.16c-3.34,2.52-8.21,2.79-14.79.78-5.58-1.71-9.64-4.33-12.11-7.76S30.21,88.5,31.59,83.38Z" transform="translate(-8.5 -9.5)"/><path class="d" d="M68.13,96.89q1.71-6.52,3.47-13A90.61,90.61,0,0,0,82.45,67.59a94.47,94.47,0,0,0,7.73-18.3q7.2,2.19,14.48,4.47a58.36,58.36,0,0,1-9.79,17.58A113.28,113.28,0,0,1,79.08,87.77q5.08,1.35,10.14,2.63,1.2-4.25,2.37-8.46a59.58,59.58,0,0,0,7.52-7.55,41.51,41.51,0,0,0,5.49-7.88l5.32,1.5c-2.15,8.42-4.62,17-7.26,25.67l4.66,1.07q-1.71,5.44-3.51,11l-4.57-1q-1.83,5.81-3.71,11.68c-4.25-.91-8.54-1.93-12.87-3,1.12-3.93,2.25-7.87,3.37-11.79C80.1,100.11,74.13,98.53,68.13,96.89Z" transform="translate(-8.5 -9.5)"/></svg>