<svg xmlns="http://www.w3.org/2000/svg" xmlns:xlink="http://www.w3.org/1999/xlink" viewBox="0 0 141 141"><defs><style>.a,.b,.c,.d{stroke-miterlimit:10;}.a{fill:url(#a);stroke:url(#b);}.b,.c{fill:none;opacity:0.6;}.b,.c,.d{stroke:#fff;}.b{stroke-width:5px;}.c{stroke-width:3px;}</style><radialGradient id="a" cx="63" cy="63" fx="55.41055570374086" fy="54.53820578463143" r="70.88" gradientUnits="userSpaceOnUse"><stop offset="0" stop-color="#b1d1fb"/><stop offset="0.46" stop-color="#0b6ffa"/><stop offset="0.7" stop-color="#0846aa"/><stop offset="1" stop-color="#151538"/></radialGradient><linearGradient id="b" x1="9.44" y1="35.24" x2="131.56" y2="105.76" gradientUnits="userSpaceOnUse"><stop offset="0" stop-color="#b8d2f5"/><stop offset="0.51" stop-color="#151538"/></linearGradient></defs><title>ball_42</title><circle class="a" cx="70.5" cy="70.5" r="70"/><circle class="b" cx="64.75" cy="67.25" r="50.75"/><circle class="c" cx="65" cy="67.5" r="57.5"/><path class="d" d="M30.12,86.32q1.62-6.19,3.44-12.49a92.78,92.78,0,0,0,11.23-16,115.43,115.43,0,0,0,8.75-18.64q6.9,1.65,13.92,3.55A68.44,68.44,0,0,1,57,61.13,105.54,105.54,0,0,1,41,77.63q5.1,1.32,10.2,2.69,1.14-4.23,2.32-8.46a57.9,57.9,0,0,0,7.57-7.71,45.66,45.66,0,0,0,5.65-8.23L72,57.32C69.64,66.21,67.21,75.11,64.86,84l4.74,1.27q-1.5,5.63-3,11.22l-4.72-1.3Q60.42,101,59,106.87c-4.45-1.3-8.93-2.64-13.44-4,.88-3.81,1.82-7.65,2.79-11.5C42.29,89.68,36.21,88,30.12,86.32Z" transform="translate(-8.5 -9.5)"/><path class="d" d="M77.07,68.7l1.29-4.9c2-6.17,4.61-10.29,8-12.32s8-2.12,14.09-.26c5.42,1.67,9.35,4.32,11.7,7.84s2.92,7.81,1.55,13a20.28,20.28,0,0,1-4.48,8.78,31.63,31.63,0,0,1-7.43,5.77q-4.45,2.53-9.07,5.21a38,38,0,0,0-7.87,5.89,15.18,15.18,0,0,0-1.26,1.54,12.67,12.67,0,0,0-1.11,1.58c7,1.81,13.88,3.51,20.71,5q-1.84,5.78-3.73,11.6C88.29,115,76.85,112,65.2,108.66c.32-1.29.65-2.57,1-3.86,1.81-6,4.26-10.67,7.3-13.93a51.5,51.5,0,0,1,12-9.15,96.84,96.84,0,0,0,10.11-6.38c1.83-1.43,3.18-3.8,4-7.1,1-3.8.13-6.07-2.44-6.81s-4.33.81-5.32,4.66c-.52,2-1.06,4.11-1.6,6.18Z" transform="translate(-8.5 -9.5)"/></svg>