<svg xmlns="http://www.w3.org/2000/svg" xmlns:xlink="http://www.w3.org/1999/xlink" viewBox="0 0 141 141"><defs><style>.a,.b,.c,.d{stroke-miterlimit:10;}.a{fill:url(#a);stroke:url(#b);}.b,.c{fill:none;opacity:0.6;}.b,.c,.d{stroke:#fff;}.b{stroke-width:5px;}.c{stroke-width:3px;}</style><radialGradient id="a" cx="63" cy="63" fx="55.41055570374086" fy="54.53820578463143" r="70.88" gradientUnits="userSpaceOnUse"><stop offset="0" stop-color="#b1d1fb"/><stop offset="0.46" stop-color="#0b6ffa"/><stop offset="0.7" stop-color="#0846aa"/><stop offset="1" stop-color="#151538"/></radialGradient><linearGradient id="b" x1="9.44" y1="35.24" x2="131.56" y2="105.76" gradientUnits="userSpaceOnUse"><stop offset="0" stop-color="#b8d2f5"/><stop offset="0.51" stop-color="#151538"/></linearGradient></defs><title>ball_44</title><circle class="a" cx="70.5" cy="70.5" r="70"/><circle class="b" cx="64.75" cy="67.25" r="50.75"/><circle class="c" cx="65" cy="67.5" r="57.5"/><path class="d" d="M30.24,86.32c1.07-4.13,2.22-8.29,3.42-12.48a91.93,91.93,0,0,0,11.2-16.07,115.35,115.35,0,0,0,8.69-18.66c4.6,1.1,9.24,2.31,13.93,3.59A67.33,67.33,0,0,1,57.06,61.13,105,105,0,0,1,41.15,77.64q5.1,1.33,10.2,2.7,1.14-4.23,2.31-8.47a57.87,57.87,0,0,0,7.56-7.71,44.88,44.88,0,0,0,5.63-8.22l5.23,1.41C69.75,66.23,67.33,75.13,65,84l4.74,1.27q-1.5,5.63-3,11.23L62,95.21c-1,3.91-2,7.82-2.94,11.71-4.45-1.29-8.92-2.63-13.42-4Q47,97.2,48.46,91.41C42.4,89.71,36.32,88,30.24,86.32Z" transform="translate(-8.5 -9.5)"/><path class="d" d="M68.14,96.9c1.14-4.35,2.31-8.7,3.48-13.06A90.93,90.93,0,0,0,82.47,67.61,94.79,94.79,0,0,0,90.2,49.3q7.2,2.19,14.49,4.47a58.46,58.46,0,0,1-9.8,17.57,112.39,112.39,0,0,1-15.8,16.44q5.09,1.34,10.14,2.63c.8-2.83,1.6-5.65,2.37-8.47a59,59,0,0,0,7.53-7.55,41.28,41.28,0,0,0,5.5-7.87L109.94,68c-2.15,8.42-4.62,17-7.27,25.67l4.66,1.07q-1.71,5.44-3.52,11l-4.56-1c-1.22,3.87-2.47,7.77-3.72,11.68-4.25-.91-8.54-1.93-12.87-3q1.68-5.91,3.38-11.8C80.11,100.12,74.14,98.53,68.14,96.9Z" transform="translate(-8.5 -9.5)"/></svg>