<svg xmlns="http://www.w3.org/2000/svg" xmlns:xlink="http://www.w3.org/1999/xlink" viewBox="0 0 141 141"><defs><style>.a,.b,.c,.d{stroke-miterlimit:10;}.a{fill:url(#a);stroke:url(#b);}.b,.c{fill:none;opacity:0.6;}.b,.c,.d{stroke:#fff;}.b{stroke-width:5px;}.c{stroke-width:3px;}</style><radialGradient id="a" cx="63" cy="63" fx="55.41055570374086" fy="54.53820578463143" r="70.88" gradientUnits="userSpaceOnUse"><stop offset="0" stop-color="#b1d1fb"/><stop offset="0.46" stop-color="#0b6ffa"/><stop offset="0.7" stop-color="#0846aa"/><stop offset="1" stop-color="#151538"/></radialGradient><linearGradient id="b" x1="9.44" y1="35.24" x2="131.56" y2="105.76" gradientUnits="userSpaceOnUse"><stop offset="0" stop-color="#b8d2f5"/><stop offset="0.51" stop-color="#151538"/></linearGradient></defs><title>ball_75</title><circle class="a" cx="70.5" cy="70.5" r="70"/><circle class="b" cx="64.75" cy="67.25" r="50.75"/><circle class="c" cx="65" cy="67.5" r="57.5"/><path class="d" d="M40.54,48.91c1.24-3.83,2.51-7.69,3.79-11.55C55.62,39.68,67.2,42.68,79,46q-1.32,5.25-2.71,10.51c-2,2-3.7,3.72-5,5.18a79.15,79.15,0,0,0-8.17,10.67,118,118,0,0,0-7,12.3A99.26,99.26,0,0,0,51,97.22c-.23.7-.52,1.61-.86,2.72s-.74,2.41-1.19,3.91Q41.5,101.57,34,99.23a64.14,64.14,0,0,1,2-6.11,76.68,76.68,0,0,1,8.7-16.81A199.09,199.09,0,0,1,58,59.25c.5-.6,1.14-1.33,1.91-2.18s1.64-1.82,2.61-2.93C55.14,52.23,47.8,50.46,40.54,48.91Z" transform="translate(-8.5 -9.5)"/><path class="d" d="M74.1,81.19c3-11.36,6.12-22.73,8.92-34,10.41,3,21,6.21,31.6,9.41q-1.26,5.52-2.72,11.11c-6.74-1.85-13.48-3.74-20.19-5.62q-1.18,4.62-2.41,9.25l.16,0a12.64,12.64,0,0,1,8.08-.41c9.71,2.66,13.29,8.72,10.31,18.57q-1.29,4.27-2.64,8.6a38.35,38.35,0,0,1-5.09,10.78,15.06,15.06,0,0,1-7.44,5.77c-2.93,1-6.42,1-10.53-.08-5.36-1.42-9.21-3.94-11.51-7.43s-2.81-7.93-1.41-13.3q.7-2.71,1.43-5.45Q77.44,90.24,84.17,92l-1.65,6q-1.3,4.76,2.39,5.72c2.46.63,4.14-.65,5-3.81,1.29-4.53,2.59-9.05,3.85-13.55.89-3.14.06-5-2.47-5.69s-4.22.58-5.08,3.73Q80.18,82.83,74.1,81.19Z" transform="translate(-8.5 -9.5)"/></svg>