<svg xmlns="http://www.w3.org/2000/svg" xmlns:xlink="http://www.w3.org/1999/xlink" viewBox="0 0 141 141"><defs><style>.a,.b,.c,.d{stroke-miterlimit:10;}.a{fill:url(#a);stroke:url(#b);}.b,.c{fill:none;opacity:0.6;}.b,.c,.d{stroke:#fff;}.b{stroke-width:5px;}.c{stroke-width:3px;}</style><radialGradient id="a" cx="63" cy="63" fx="55.41055570374086" fy="54.53820578463143" r="70.88" gradientUnits="userSpaceOnUse"><stop offset="0" stop-color="#b1d1fb"/><stop offset="0.46" stop-color="#0b6ffa"/><stop offset="0.7" stop-color="#0846aa"/><stop offset="1" stop-color="#151538"/></radialGradient><linearGradient id="b" x1="9.44" y1="35.24" x2="131.56" y2="105.76" gradientUnits="userSpaceOnUse"><stop offset="0" stop-color="#b8d2f5"/><stop offset="0.51" stop-color="#151538"/></linearGradient></defs><title>ball_72</title><circle class="a" cx="70.5" cy="70.5" r="70"/><circle class="b" cx="64.75" cy="67.25" r="50.75"/><circle class="c" cx="65" cy="67.5" r="57.5"/><path class="d" d="M41.57,48.88q1.86-5.75,3.77-11.56C56.63,39.61,68.22,42.6,80,46q-1.34,5.25-2.71,10.5c-2,2-3.7,3.72-5,5.18A80,80,0,0,0,64.14,72.3a118.34,118.34,0,0,0-7,12.32,101.77,101.77,0,0,0-5.19,12.55q-.35,1.06-.87,2.73c-.35,1.11-.76,2.41-1.22,3.92q-7.44-2.26-15-4.6c.39-1.47,1.06-3.5,2-6.11a78.28,78.28,0,0,1,8.78-16.84A203,203,0,0,1,59.05,59.19c.5-.61,1.14-1.33,1.9-2.18s1.64-1.83,2.62-2.94C56.17,52.17,48.83,50.41,41.57,48.88Z" transform="translate(-8.5 -9.5)"/><path class="d" d="M78,68.76c.44-1.63.87-3.27,1.3-4.9,2-6.18,4.64-10.31,8-12.35s8.08-2.13,14.15-.28c5.43,1.67,9.34,4.31,11.67,7.84s2.87,7.8,1.48,13a20.61,20.61,0,0,1-4.52,8.8,31.69,31.69,0,0,1-7.43,5.79l-9.06,5.23a38.06,38.06,0,0,0-7.86,5.9,16.38,16.38,0,0,0-1.26,1.54,14.44,14.44,0,0,0-1.1,1.58c7,1.82,13.87,3.51,20.71,5q-1.82,5.77-3.67,11.62c-11.18-2.4-22.63-5.45-34.28-8.83l1-3.85c1.8-6,4.24-10.65,7.27-13.9a51.16,51.16,0,0,1,11.93-9.16,97,97,0,0,0,10.13-6.4c1.83-1.44,3.19-3.81,4.05-7.11,1-3.81.16-6.07-2.42-6.81s-4.34.81-5.34,4.67q-.8,3.09-1.62,6.18Z" transform="translate(-8.5 -9.5)"/></svg>