<svg xmlns="http://www.w3.org/2000/svg" xmlns:xlink="http://www.w3.org/1999/xlink" viewBox="0 0 141 141"><defs><style>.a,.b,.c,.d{stroke-miterlimit:10;}.a{fill:url(#a);stroke:url(#b);}.b,.c{fill:none;opacity:0.6;}.b,.c,.d{stroke:#fff;}.b{stroke-width:5px;}.c{stroke-width:3px;}</style><radialGradient id="a" cx="63" cy="63" fx="55.41055570374086" fy="54.53820578463143" r="70.88" gradientUnits="userSpaceOnUse"><stop offset="0" stop-color="#b1d1fb"/><stop offset="0.46" stop-color="#0b6ffa"/><stop offset="0.7" stop-color="#0846aa"/><stop offset="1" stop-color="#151538"/></radialGradient><linearGradient id="b" x1="9.44" y1="35.24" x2="131.56" y2="105.76" gradientUnits="userSpaceOnUse"><stop offset="0" stop-color="#b8d2f5"/><stop offset="0.51" stop-color="#151538"/></linearGradient></defs><title>ball_76</title><circle class="a" cx="70.5" cy="70.5" r="70"/><circle class="b" cx="64.75" cy="67.25" r="50.75"/><circle class="c" cx="65" cy="67.5" r="57.5"/><path class="d" d="M40.57,48.9q1.84-5.76,3.77-11.56C55.63,39.65,67.22,42.67,79,46q-1.32,5.24-2.7,10.49c-2,2-3.7,3.71-5,5.18a79.32,79.32,0,0,0-8.16,10.67,117.07,117.07,0,0,0-7,12.31A100.89,100.89,0,0,0,51,97.23c-.23.71-.51,1.61-.86,2.72l-1.2,3.92C44,102.35,39,100.79,34,99.23c.38-1.47,1-3.5,2-6.11a77.38,77.38,0,0,1,8.71-16.81A202.89,202.89,0,0,1,58.06,59.24c.51-.6,1.14-1.33,1.91-2.18s1.64-1.82,2.61-2.93C55.17,52.22,47.83,50.44,40.57,48.9Z" transform="translate(-8.5 -9.5)"/><path class="d" d="M69.68,94.22c2.84-10.85,5.82-21.73,8.67-32.57,1.28-4.9,3.77-8.34,7.45-10.27s8.22-2,13.71-.37c10.85,3.39,15.37,10,12.65,20.08q-6.34-1.7-12.68-3.44c.88-3.4,0-5.45-2.49-6.17s-4.22.63-5.11,4.07q-.9,3.47-1.83,7l.11.2a9,9,0,0,1,4.12-1.91,12.71,12.71,0,0,1,4.74.53c4.91,1.33,7.93,3.62,9,6.86s.92,7.41-.54,12.57q-1.83,6-3.75,12a18,18,0,0,1-8,10.54c-3.74,2.17-8.15,2.66-13.41,1.3s-8.94-3.93-11.19-7.61S68.41,99.07,69.68,94.22ZM87.45,84q-2.07,7.49-4.16,15c-.75,2.69,0,4.32,2.11,4.87s3.61-.54,4.39-3.23Q92,93.1,94.06,85.65c.75-2.66,0-4.27-2.19-4.85S88.19,81.27,87.45,84Z" transform="translate(-8.5 -9.5)"/></svg>