<svg xmlns="http://www.w3.org/2000/svg" xmlns:xlink="http://www.w3.org/1999/xlink" viewBox="0 0 141 141"><defs><style>.a,.b,.c,.d{stroke-miterlimit:10;}.a{fill:url(#a);stroke:url(#b);}.b,.c{fill:none;opacity:0.6;}.b,.c,.d{stroke:#fff;}.b{stroke-width:5px;}.c{stroke-width:3px;}</style><radialGradient id="a" cx="63" cy="63" fx="55.41055570374086" fy="54.53820578463143" r="70.88" gradientUnits="userSpaceOnUse"><stop offset="0" stop-color="#b1d1fb"/><stop offset="0.46" stop-color="#0b6ffa"/><stop offset="0.7" stop-color="#0846aa"/><stop offset="1" stop-color="#151538"/></radialGradient><linearGradient id="b" x1="9.44" y1="35.24" x2="131.56" y2="105.76" gradientUnits="userSpaceOnUse"><stop offset="0" stop-color="#b8d2f5"/><stop offset="0.51" stop-color="#151538"/></linearGradient></defs><title>ball_40</title><circle class="a" cx="70.5" cy="70.5" r="70"/><circle class="b" cx="64.75" cy="67.25" r="50.75"/><circle class="c" cx="65" cy="67.5" r="57.5"/><path class="d" d="M30.18,86.32c1.05-4.12,2.19-8.28,3.39-12.47a93.49,93.49,0,0,0,11.21-16,116.72,116.72,0,0,0,8.76-18.63c4.6,1.1,9.24,2.3,13.92,3.56A68,68,0,0,1,57,61.19,105.66,105.66,0,0,1,41.06,77.66q5.1,1.34,10.21,2.71,1.13-4.22,2.29-8.46a57.81,57.81,0,0,0,7.58-7.7A45,45,0,0,0,66.78,56L72,57.39C69.66,66.28,67.23,75.17,64.88,84l4.74,1.28q-1.5,5.63-3,11.22L62,95.24q-1.5,5.87-2.89,11.7-6.66-2-13.4-4Q47,97.2,48.41,91.43C42.35,89.72,36.26,88,30.18,86.32Z" transform="translate(-8.5 -9.5)"/><path class="d" d="M69.72,94.16c2.86-10.85,5.85-21.73,8.67-32.57,1.27-4.89,3.74-8.32,7.4-10.25S94,49.3,99.45,51a24.85,24.85,0,0,1,8.91,4.7,14.9,14.9,0,0,1,4.8,7.07,15.21,15.21,0,0,1,0,8.44c-2.73,10.34-6,20.89-9.39,31.58a17.91,17.91,0,0,1-8,10.5c-3.74,2.16-8.16,2.63-13.41,1.27s-8.93-3.92-11.17-7.58S68.44,99,69.72,94.16Zm23-29.69c-2.89,11.37-6.12,22.87-9.35,34.42-.76,2.69,0,4.32,2.1,4.87s3.61-.54,4.4-3.22c3.35-11.52,6.63-23,9.49-34.22.67-2.62-.12-4.24-2.33-4.88S93.36,61.82,92.69,64.47Z" transform="translate(-8.5 -9.5)"/></svg>