<svg xmlns="http://www.w3.org/2000/svg" xmlns:xlink="http://www.w3.org/1999/xlink" viewBox="0 0 141 141"><defs><style>.a,.b,.c,.d{stroke-miterlimit:10;}.a{fill:url(#a);stroke:url(#b);}.b,.c{fill:none;opacity:0.6;}.b,.c,.d{stroke:#fff;}.b{stroke-width:5px;}.c{stroke-width:3px;}</style><radialGradient id="a" cx="63" cy="63" fx="55.41055570374086" fy="54.53820578463143" r="70.88" gradientUnits="userSpaceOnUse"><stop offset="0" stop-color="#b1d1fb"/><stop offset="0.46" stop-color="#0b6ffa"/><stop offset="0.7" stop-color="#0846aa"/><stop offset="1" stop-color="#151538"/></radialGradient><linearGradient id="b" x1="9.44" y1="35.24" x2="131.56" y2="105.76" gradientUnits="userSpaceOnUse"><stop offset="0" stop-color="#b8d2f5"/><stop offset="0.51" stop-color="#151538"/></linearGradient></defs><title>ball_21</title><circle class="a" cx="70.5" cy="70.5" r="70"/><circle class="b" cx="64.75" cy="67.25" r="50.75"/><circle class="c" cx="65" cy="67.5" r="57.5"/><path class="d" d="M43.06,59.1c.49-1.62,1-3.23,1.48-4.85,2.22-6.13,5.1-10.36,8.54-12.59s8-2.64,13.84-1c5.22,1.43,9,4,11.15,7.62s2.66,8.11,1.27,13.52a21.68,21.68,0,0,1-4.48,9.14,29.85,29.85,0,0,1-7.37,5.86q-4.41,2.55-9,5.15a37.53,37.53,0,0,0-7.78,5.73,15.53,15.53,0,0,0-1.23,1.5,11.13,11.13,0,0,0-1.06,1.53c7.09,2,14.15,4,21.16,5.89q-1.54,5.85-3,11.69C55,105,43.15,101.33,31.23,97.71q.4-1.83.84-3.66c1.63-5.71,4-10.15,7.07-13.29a54,54,0,0,1,12-9A89.76,89.76,0,0,0,61.24,65.3c1.84-1.47,3.21-3.89,4.13-7.27,1-3.9.31-6.2-2.2-6.86s-4.32,1-5.42,4.88q-.89,3.12-1.76,6.24Q49.49,60.63,43.06,59.1Z" transform="translate(-8.5 -9.5)"/><path class="d" d="M82.64,62.67c.75-2.94,1.49-5.86,2.2-8.78,6.44,1.48,10.86.47,13.08-3l11.79,3.67C105.54,74,99.19,94.31,92.73,115c-4.26-1-8.56-2-12.9-3.14,4.34-15.6,8.88-31.14,12.76-46.41Z" transform="translate(-8.5 -9.5)"/></svg>