<svg xmlns="http://www.w3.org/2000/svg" xmlns:xlink="http://www.w3.org/1999/xlink" viewBox="0 0 141 141"><defs><style>.a,.b,.c,.d{stroke-miterlimit:10;}.a{fill:url(#a);stroke:url(#b);}.b,.c{fill:none;opacity:0.6;}.b,.c,.d{stroke:#fff;}.b{stroke-width:5px;}.c{stroke-width:3px;}</style><radialGradient id="a" cx="63" cy="63" fx="55.41055570374086" fy="54.53820578463143" r="70.88" gradientUnits="userSpaceOnUse"><stop offset="0" stop-color="#b1d1fb"/><stop offset="0.46" stop-color="#0b6ffa"/><stop offset="0.7" stop-color="#0846aa"/><stop offset="1" stop-color="#151538"/></radialGradient><linearGradient id="b" x1="9.44" y1="35.24" x2="131.56" y2="105.76" gradientUnits="userSpaceOnUse"><stop offset="0" stop-color="#b8d2f5"/><stop offset="0.51" stop-color="#151538"/></linearGradient></defs><title>ball_68</title><circle class="a" cx="70.5" cy="70.5" r="70"/><circle class="b" cx="64.75" cy="67.25" r="50.75"/><circle class="c" cx="65" cy="67.5" r="57.5"/><path class="d" d="M31.76,83.68c2.73-10.33,5.95-20.88,9.37-31.57a17.89,17.89,0,0,1,8-10.51c3.75-2.16,8.16-2.63,13.42-1.27C72.92,43.08,77,50,74.24,60.62Q68,58.91,61.74,57.29c1-3.48.21-5.55-2.24-6.18s-4.19.81-5.21,4.28c-.67,2.34-1.35,4.68-2,7l.11.2a9.4,9.4,0,0,1,4.13-2,12,12,0,0,1,4.69.45c4.84,1.26,7.82,3.6,8.92,7s1,7.71-.32,13q-1.64,6.13-3.24,12.25c-1.27,4.89-3.74,8.33-7.4,10.26s-8.17,2-13.65.36-9.4-4.35-11.84-8A14.33,14.33,0,0,1,31.76,83.68ZM49.55,73.8q-2.05,7.42-3.93,14.76c-.66,2.62.13,4.24,2.34,4.88s3.64-.37,4.31-3c1.25-4.94,2.57-9.9,3.92-14.88.73-2.67,0-4.3-2.22-4.87S50.29,71.15,49.55,73.8Z" transform="translate(-8.5 -9.5)"/><path class="d" d="M69.71,94.15q.67-2.61,1.38-5.22A24,24,0,0,1,74.56,81q2.16-3,7.22-3.53-5.57-4.2-4.06-11.5c.38-1.42.75-2.84,1.12-4.27a27.6,27.6,0,0,1,2.7-6.76,11,11,0,0,1,6-4.68c2.87-1.08,6.79-.85,11.85.7s8.66,3.6,10.76,6.07,3.2,4.83,3.3,7.09a23.07,23.07,0,0,1-.78,6.93c-.36,1.36-.72,2.72-1.09,4.08a10.83,10.83,0,0,1-3.07,4.76,11.11,11.11,0,0,1-6.44,2.9c2.8,1.82,4.36,3.79,4.66,5.95s-.14,5.11-1.32,8.88q-.81,2.56-1.63,5.13a17.94,17.94,0,0,1-8,10.51c-3.75,2.16-8.16,2.63-13.42,1.27s-8.93-3.93-11.17-7.6S68.43,99,69.71,94.15Zm16.41-5.3q-1.4,5-2.8,10c-.75,2.69,0,4.32,2.11,4.87s3.61-.53,4.4-3.21q1.45-5,2.88-10c.76-2.67,0-4.28-2.17-4.85S86.87,86.17,86.12,88.85Zm6.54-24.4q-.72,2.85-1.47,5.7-1.05,4,2.27,4.88c2.22.6,3.69-.44,4.38-3.07q.75-2.83,1.47-5.65c.66-2.62-.13-4.24-2.34-4.88S93.33,61.8,92.66,64.45Z" transform="translate(-8.5 -9.5)"/></svg>