<svg xmlns="http://www.w3.org/2000/svg" xmlns:xlink="http://www.w3.org/1999/xlink" viewBox="0 0 141 141"><defs><style>.a,.b,.c,.d{stroke-miterlimit:10;}.a{fill:url(#a);stroke:url(#b);}.b,.c{fill:none;opacity:0.6;}.b,.c,.d{stroke:#fff;}.b{stroke-width:5px;}.c{stroke-width:3px;}</style><radialGradient id="a" cx="63" cy="63" fx="55.41055570374086" fy="54.53820578463143" r="70.88" gradientUnits="userSpaceOnUse"><stop offset="0" stop-color="#b1d1fb"/><stop offset="0.46" stop-color="#0b6ffa"/><stop offset="0.7" stop-color="#0846aa"/><stop offset="1" stop-color="#151538"/></radialGradient><linearGradient id="b" x1="9.44" y1="35.24" x2="131.56" y2="105.76" gradientUnits="userSpaceOnUse"><stop offset="0" stop-color="#b8d2f5"/><stop offset="0.51" stop-color="#151538"/></linearGradient></defs><title>ball_10</title><circle class="a" cx="70.5" cy="70.5" r="70"/><circle class="b" cx="64.75" cy="67.25" r="50.75"/><circle class="c" cx="65" cy="67.5" r="57.5"/><path class="d" d="M43.52,54.33c.93-2.88,1.87-5.79,2.83-8.7,6.21.82,10.63-.49,13.11-4.27q5.59,1.3,11.29,2.84C65.23,65,59.09,85.76,54.51,105.89c-4.46-1.4-8.95-2.85-13.46-4.32C44.24,87,48.59,71.87,53.19,56.44,50,55.69,46.72,55,43.52,54.33Z" transform="translate(-8.5 -9.5)"/><path class="d" d="M64.4,93.22c2.77-10.78,5.76-21.66,8.66-32.53,1.31-4.9,3.81-8.37,7.48-10.32s8.16-2.09,13.6-.37A24.12,24.12,0,0,1,103,54.79a15.12,15.12,0,0,1,4.77,7.13,15.43,15.43,0,0,1,0,8.45c-2.71,10.32-5.88,20.9-9.18,31.64-1.5,4.85-4.15,8.4-7.86,10.57s-8.13,2.61-13.41,1.18-9-4.08-11.3-7.78A15.8,15.8,0,0,1,64.4,93.22ZM87.31,63.53c-2.92,11.43-6.13,23-9.24,34.55-.72,2.69,0,4.33,2.16,4.9s3.61-.52,4.37-3.21c3.22-11.55,6.46-23,9.35-34.36.67-2.63-.12-4.26-2.32-4.91S88,60.87,87.31,63.53Z" transform="translate(-8.5 -9.5)"/></svg>