<svg xmlns="http://www.w3.org/2000/svg" xmlns:xlink="http://www.w3.org/1999/xlink" viewBox="0 0 141 141"><defs><style>.a,.b,.c,.d{stroke-miterlimit:10;}.a{fill:url(#a);stroke:url(#b);}.b,.c{fill:none;opacity:0.6;}.b,.c,.d{stroke:#fff;}.b{stroke-width:5px;}.c{stroke-width:3px;}</style><radialGradient id="a" cx="63" cy="63" fx="55.41055570374086" fy="54.53820578463143" r="70.88" gradientUnits="userSpaceOnUse"><stop offset="0" stop-color="#b1d1fb"/><stop offset="0.46" stop-color="#0b6ffa"/><stop offset="0.7" stop-color="#0846aa"/><stop offset="1" stop-color="#151538"/></radialGradient><linearGradient id="b" x1="9.44" y1="35.24" x2="131.56" y2="105.76" gradientUnits="userSpaceOnUse"><stop offset="0" stop-color="#b8d2f5"/><stop offset="0.51" stop-color="#151538"/></linearGradient></defs><title>ball_55</title><circle class="a" cx="70.5" cy="70.5" r="70"/><circle class="b" cx="64.75" cy="67.25" r="50.75"/><circle class="c" cx="65" cy="67.5" r="57.5"/><path class="d" d="M36.22,71.18C39.4,60.18,43,49,46.6,37.68c9.95,2.19,20.14,4.87,30.49,7.79q-1.49,5.84-3,11.69C67.41,55.35,60.79,53.6,54.24,52q-1.37,4.65-2.69,9.29l.15,0a12.53,12.53,0,0,1,8-.57c9.59,2.5,13.1,8.91,10.39,19Q69,84.16,67.81,88.53a35.52,35.52,0,0,1-4.55,10.78,12.51,12.51,0,0,1-7.19,5.35c-2.93.8-6.51.53-10.79-.78-5.57-1.72-9.64-4.34-12.13-7.78S30,88.45,31.34,83.34q.68-2.59,1.4-5.21,6.81,1.78,13.63,3.63-.78,2.94-1.53,5.88c-.78,3.08.12,5,2.65,5.7s4.16-.46,4.95-3.58c1.13-4.47,2.32-9,3.53-13.46.85-3.14,0-5-2.51-5.71s-4.22.59-5.08,3.71C44.32,73.24,40.27,72.19,36.22,71.18Z" transform="translate(-8.5 -9.5)"/><path class="d" d="M74.17,81.18c3-11.37,6.11-22.73,8.87-34,10.41,3,21,6.22,31.61,9.42q-1.25,5.51-2.7,11.1c-6.74-1.85-13.48-3.74-20.19-5.62q-1.17,4.6-2.4,9.24l.16,0a12.71,12.71,0,0,1,8.08-.41c9.71,2.66,13.31,8.73,10.31,18.57-.86,2.85-1.75,5.71-2.65,8.59a38,38,0,0,1-5.12,10.77,15.17,15.17,0,0,1-7.45,5.76c-2.94,1-6.43,1-10.53-.08-5.36-1.4-9.2-3.91-11.49-7.4s-2.8-7.92-1.39-13.3q.7-2.72,1.44-5.45Q77.49,90.22,84.23,92c-.56,2-1.11,4-1.67,6-.87,3.17-.07,5.08,2.39,5.71s4.14-.65,5-3.8q2-6.8,3.88-13.54c.88-3.14.05-5-2.47-5.69s-4.22.58-5.09,3.73C82.28,83.34,78.22,82.27,74.17,81.18Z" transform="translate(-8.5 -9.5)"/></svg>