<svg xmlns="http://www.w3.org/2000/svg" xmlns:xlink="http://www.w3.org/1999/xlink" viewBox="0 0 141 141"><defs><style>.a,.b,.c,.d{stroke-miterlimit:10;}.a{fill:url(#a);stroke:url(#b);}.b,.c{fill:none;opacity:0.6;}.b,.c,.d{stroke:#fff;}.b{stroke-width:5px;}.c{stroke-width:3px;}</style><radialGradient id="a" cx="63" cy="63" fx="55.41055570374086" fy="54.53820578463143" r="70.88" gradientUnits="userSpaceOnUse"><stop offset="0" stop-color="#b1d1fb"/><stop offset="0.46" stop-color="#0b6ffa"/><stop offset="0.7" stop-color="#0846aa"/><stop offset="1" stop-color="#151538"/></radialGradient><linearGradient id="b" x1="9.44" y1="35.24" x2="131.56" y2="105.76" gradientUnits="userSpaceOnUse"><stop offset="0" stop-color="#b8d2f5"/><stop offset="0.51" stop-color="#151538"/></linearGradient></defs><title>ball_67</title><circle class="a" cx="70.5" cy="70.5" r="70"/><circle class="b" cx="64.75" cy="67.25" r="50.75"/><circle class="c" cx="65" cy="67.5" r="57.5"/><path class="d" d="M31.69,83.68c2.7-10.33,5.93-20.87,9.39-31.55a17.88,17.88,0,0,1,8-10.48c3.75-2.15,8.17-2.62,13.42-1.27C72.9,43.11,77,50,74.17,60.64q-6.27-1.7-12.5-3.31c1-3.48.23-5.55-2.22-6.18s-4.2.82-5.22,4.28c-.68,2.34-1.37,4.67-2,7l.11.2a9.31,9.31,0,0,1,4.13-2,12.1,12.1,0,0,1,4.69.44c4.85,1.26,7.82,3.6,8.92,7s1,7.72-.32,13Q68.08,87.2,66.5,93.3c-1.27,4.89-3.72,8.32-7.37,10.24s-8.14,2-13.62.36-9.4-4.34-11.87-8A14.34,14.34,0,0,1,31.69,83.68Zm17.77-9.86q-2,7.41-3.9,14.74c-.66,2.62.14,4.24,2.35,4.88s3.63-.37,4.3-3c1.23-4.93,2.54-9.88,3.89-14.86.73-2.66,0-4.29-2.21-4.87S50.2,71.17,49.46,73.82Z" transform="translate(-8.5 -9.5)"/><path class="d" d="M77.69,58.12q1.53-5.84,3-11.68c11.75,3.36,23.74,7,35.83,10.64q-1.08,5-2.35,10c-2,1.86-3.65,3.51-4.92,4.92a74.6,74.6,0,0,0-8.15,10.4A126,126,0,0,0,93.83,94.7a122.3,122.3,0,0,0-5.66,12.81l-1,2.8q-.61,1.71-1.44,4c-4.74-1.22-9.53-2.53-14.37-3.89.45-1.57,1.19-3.73,2.24-6.49a88,88,0,0,1,9-17.56,184.71,184.71,0,0,1,13.2-17.08c.49-.59,1.11-1.29,1.86-2.12s1.59-1.76,2.54-2.82C92.67,62.29,85.15,60.17,77.69,58.12Z" transform="translate(-8.5 -9.5)"/></svg>