<svg xmlns="http://www.w3.org/2000/svg" xmlns:xlink="http://www.w3.org/1999/xlink" viewBox="0 0 141 141"><defs><style>.a,.b,.c,.d{stroke-miterlimit:10;}.a{fill:url(#a);stroke:url(#b);}.b,.c{fill:none;opacity:0.6;}.b,.c,.d{stroke:#fff;}.b{stroke-width:5px;}.c{stroke-width:3px;}</style><radialGradient id="a" cx="63" cy="63" fx="55.41055570374086" fy="54.53820578463143" r="70.88" gradientUnits="userSpaceOnUse"><stop offset="0" stop-color="#b1d1fb"/><stop offset="0.46" stop-color="#0b6ffa"/><stop offset="0.7" stop-color="#0846aa"/><stop offset="1" stop-color="#151538"/></radialGradient><linearGradient id="b" x1="9.44" y1="35.24" x2="131.56" y2="105.76" gradientUnits="userSpaceOnUse"><stop offset="0" stop-color="#b8d2f5"/><stop offset="0.51" stop-color="#151538"/></linearGradient></defs><title>ball_64</title><circle class="a" cx="70.5" cy="70.5" r="70"/><circle class="b" cx="64.75" cy="67.25" r="50.75"/><circle class="c" cx="65" cy="67.5" r="57.5"/><path class="d" d="M31.83,83.68c2.77-10.34,6-20.9,9.36-31.61a17.89,17.89,0,0,1,7.94-10.54c3.74-2.17,8.15-2.64,13.42-1.27C72.94,43,77.08,50,74.31,60.58Q68,58.86,61.81,57.23c1-3.48.2-5.55-2.26-6.18s-4.19.81-5.19,4.29l-2,7,.11.2a9.31,9.31,0,0,1,4.12-2,12.1,12.1,0,0,1,4.69.44c4.85,1.27,7.83,3.62,8.93,7s1,7.72-.31,13q-1.65,6.14-3.26,12.26c-1.29,4.89-3.78,8.34-7.45,10.27s-8.2,2.06-13.69.38-9.39-4.35-11.81-8A14.31,14.31,0,0,1,31.83,83.68Zm17.81-9.91q-2.05,7.42-4,14.77c-.67,2.63.12,4.25,2.33,4.89s3.64-.38,4.32-3q1.91-7.43,4-14.9c.73-2.67,0-4.3-2.22-4.87S50.38,71.11,49.64,73.77Z" transform="translate(-8.5 -9.5)"/><path class="d" d="M68.12,96.88q1.71-6.52,3.47-13A90.87,90.87,0,0,0,82.44,67.59a94.53,94.53,0,0,0,7.73-18.31q7.18,2.19,14.48,4.48a58.2,58.2,0,0,1-9.79,17.57A112.84,112.84,0,0,1,79.07,87.77q5.09,1.33,10.14,2.63,1.2-4.25,2.37-8.47a58.81,58.81,0,0,0,7.52-7.54,41.51,41.51,0,0,0,5.49-7.88l5.32,1.5c-2.14,8.41-4.61,17-7.25,25.67l4.66,1.07q-1.71,5.44-3.51,11l-4.57-1q-1.83,5.81-3.71,11.69c-4.25-.92-8.54-1.94-12.87-3,1.11-3.94,2.24-7.87,3.36-11.79C80.1,100.11,74.13,98.52,68.12,96.88Z" transform="translate(-8.5 -9.5)"/></svg>