<svg xmlns="http://www.w3.org/2000/svg" xmlns:xlink="http://www.w3.org/1999/xlink" viewBox="0 0 141 141"><defs><style>.a,.b,.c,.d{stroke-miterlimit:10;}.a{fill:url(#a);stroke:url(#b);}.b,.c{fill:none;opacity:0.6;}.b,.c,.d{stroke:#fff;}.b{stroke-width:5px;}.c{stroke-width:3px;}</style><radialGradient id="a" cx="63" cy="63" fx="55.41055570374086" fy="54.53820578463143" r="70.88" gradientUnits="userSpaceOnUse"><stop offset="0" stop-color="#b1d1fb"/><stop offset="0.46" stop-color="#0b6ffa"/><stop offset="0.7" stop-color="#0846aa"/><stop offset="1" stop-color="#151538"/></radialGradient><linearGradient id="b" x1="9.44" y1="35.24" x2="131.56" y2="105.76" gradientUnits="userSpaceOnUse"><stop offset="0" stop-color="#b8d2f5"/><stop offset="0.51" stop-color="#151538"/></linearGradient></defs><title>ball_58</title><circle class="a" cx="70.5" cy="70.5" r="70"/><circle class="b" cx="64.75" cy="67.25" r="50.75"/><circle class="c" cx="65" cy="67.5" r="57.5"/><path class="d" d="M37.26,71.18C40.43,60.18,44,49,47.6,37.66c10,2.19,20.15,4.88,30.5,7.81q-1.47,5.84-3,11.69C68.43,55.34,61.82,53.59,55.26,52c-.9,3.1-1.8,6.2-2.68,9.29l.15,0a12.6,12.6,0,0,1,8.05-.57c9.6,2.51,13.11,8.92,10.4,19Q70,84.16,68.84,88.53a35.34,35.34,0,0,1-4.56,10.79,12.55,12.55,0,0,1-7.19,5.35c-2.94.8-6.51.54-10.79-.78-5.57-1.72-9.64-4.35-12.13-7.79S31,88.45,32.38,83.34q.67-2.59,1.4-5.21,6.81,1.78,13.62,3.63c-.52,2-1,3.93-1.52,5.88-.78,3.08.11,5,2.64,5.71s4.16-.46,4.95-3.58Q55.18,83.07,57,76.3c.85-3.14,0-5-2.51-5.71s-4.22.59-5.08,3.71C45.36,73.24,41.31,72.19,37.26,71.18Z" transform="translate(-8.5 -9.5)"/><path class="d" d="M70.72,94.21c.45-1.74.92-3.48,1.38-5.22a24.45,24.45,0,0,1,3.47-7.93c1.45-2,3.85-3.19,7.23-3.53q-5.58-4.2-4.06-11.5c.37-1.42.75-2.84,1.12-4.26A27.54,27.54,0,0,1,82.57,55a11.17,11.17,0,0,1,6.06-4.69c2.87-1.08,6.81-.85,11.89.69s8.67,3.58,10.75,6,3.18,4.82,3.27,7.08a23.22,23.22,0,0,1-.81,6.94l-1.11,4.08a10.86,10.86,0,0,1-3.08,4.76,11.17,11.17,0,0,1-6.45,2.91c2.8,1.82,4.35,3.79,4.64,6s-.13,5.11-1.32,8.88q-.81,2.56-1.63,5.13a17.94,17.94,0,0,1-8,10.52c-3.74,2.17-8.16,2.65-13.42,1.29s-8.93-3.92-11.17-7.59S69.44,99.06,70.72,94.21Zm16.4-5.31q-1.4,5-2.8,10c-.75,2.69,0,4.32,2.11,4.86s3.61-.54,4.39-3.22q1.46-5,2.89-10,1.14-4-2.16-4.84C89.34,85.17,87.87,86.22,87.12,88.9ZM93.7,64.5q-.74,2.85-1.48,5.7-1.06,4,2.26,4.88c2.21.59,3.69-.45,4.39-3.08q.75-2.84,1.48-5.65c.67-2.63-.12-4.25-2.33-4.88S94.38,61.85,93.7,64.5Z" transform="translate(-8.5 -9.5)"/></svg>