<svg xmlns="http://www.w3.org/2000/svg" xmlns:xlink="http://www.w3.org/1999/xlink" viewBox="0 0 141 141"><defs><style>.a,.b,.c,.d{stroke-miterlimit:10;}.a{fill:url(#a);stroke:url(#b);}.b,.c{fill:none;opacity:0.6;}.b,.c,.d{stroke:#fff;}.b{stroke-width:5px;}.c{stroke-width:3px;}</style><radialGradient id="a" cx="63" cy="63" fx="55.41055570374086" fy="54.53820578463143" r="70.88" gradientUnits="userSpaceOnUse"><stop offset="0" stop-color="#b1d1fb"/><stop offset="0.46" stop-color="#0b6ffa"/><stop offset="0.7" stop-color="#0846aa"/><stop offset="1" stop-color="#151538"/></radialGradient><linearGradient id="b" x1="9.44" y1="35.24" x2="131.56" y2="105.76" gradientUnits="userSpaceOnUse"><stop offset="0" stop-color="#b8d2f5"/><stop offset="0.51" stop-color="#151538"/></linearGradient></defs><title>ball_17</title><circle class="a" cx="70.5" cy="70.5" r="70"/><circle class="b" cx="64.75" cy="67.25" r="50.75"/><circle class="c" cx="65" cy="67.5" r="57.5"/><path class="d" d="M43.46,54.34q1.41-4.32,2.87-8.68c6.2.84,10.63-.47,13.13-4.24q5.58,1.3,11.27,2.82C65.13,65,59,85.77,54.51,105.87q-6.67-2.1-13.45-4.3C44.15,87,48.49,71.88,53.13,56.48Q48.27,55.34,43.46,54.34Z" transform="translate(-8.5 -9.5)"/><path class="d" d="M72.42,57.26Q74,51.4,75.53,45.54c11.64,3.22,23.55,7,35.6,10.72q-1.09,5-2.36,10c-2,1.86-3.65,3.51-4.92,4.91a73.5,73.5,0,0,0-8.13,10.42,122.79,122.79,0,0,0-7.16,12.36A116.77,116.77,0,0,0,83,106.75c-.26.72-.58,1.66-1,2.8l-1.38,4c-4.76-1.27-9.58-2.66-14.43-4.11q.63-2.33,2.14-6.43a84.26,84.26,0,0,1,8.89-17.49A182.94,182.94,0,0,1,90.46,68.45c.49-.59,1.11-1.3,1.86-2.12s1.6-1.77,2.55-2.84C87.34,61.35,79.85,59.24,72.42,57.26Z" transform="translate(-8.5 -9.5)"/></svg>