<svg xmlns="http://www.w3.org/2000/svg" xmlns:xlink="http://www.w3.org/1999/xlink" viewBox="0 0 141 141"><defs><style>.a,.b,.c,.d{stroke-miterlimit:10;}.a{fill:url(#a);stroke:url(#b);}.b,.c{fill:none;opacity:0.6;}.b,.c,.d{stroke:#fff;}.b{stroke-width:5px;}.c{stroke-width:3px;}</style><radialGradient id="a" cx="63" cy="63" fx="55.41055570374086" fy="54.53820578463143" r="70.88" gradientUnits="userSpaceOnUse"><stop offset="0" stop-color="#b1d1fb"/><stop offset="0.46" stop-color="#0b6ffa"/><stop offset="0.7" stop-color="#0846aa"/><stop offset="1" stop-color="#151538"/></radialGradient><linearGradient id="b" x1="9.44" y1="35.24" x2="131.56" y2="105.76" gradientUnits="userSpaceOnUse"><stop offset="0" stop-color="#b8d2f5"/><stop offset="0.51" stop-color="#151538"/></linearGradient></defs><title>ball_41</title><circle class="a" cx="70.5" cy="70.5" r="70"/><circle class="b" cx="64.75" cy="67.25" r="50.75"/><circle class="c" cx="65" cy="67.5" r="57.5"/><path class="d" d="M30.31,86.32q1.59-6.18,3.4-12.48A91.44,91.44,0,0,0,44.89,57.78a114.72,114.72,0,0,0,8.66-18.67c4.6,1.11,9.25,2.33,13.94,3.62A67.34,67.34,0,0,1,57.1,61.16a104.83,104.83,0,0,1-15.9,16.5Q46.3,79,51.41,80.37q1.13-4.23,2.3-8.47a57.87,57.87,0,0,0,7.56-7.71A45.62,45.62,0,0,0,66.89,56l5.23,1.42C69.8,66.27,67.38,75.17,65,84l4.74,1.28q-1.5,5.61-3,11.23l-4.71-1.3q-1.51,5.88-2.94,11.72-6.66-1.93-13.39-4c.88-3.82,1.82-7.66,2.79-11.52Q39.44,88.87,30.31,86.32Z" transform="translate(-8.5 -9.5)"/><path class="d" d="M80,62.78Q81.12,58.39,82.2,54c6.45,1.48,10.87.47,13.11-3l11.79,3.68c-4.27,19.46-10.6,39.8-17,60.51-4.26-1-8.57-2-12.91-3.15,4.3-15.6,8.83-31.15,12.74-46.43Z" transform="translate(-8.5 -9.5)"/></svg>