<svg xmlns="http://www.w3.org/2000/svg" xmlns:xlink="http://www.w3.org/1999/xlink" viewBox="0 0 141 141"><defs><style>.a,.b,.c,.d{stroke-miterlimit:10;}.a{fill:url(#a);stroke:url(#b);}.b,.c{fill:none;opacity:0.6;}.b,.c,.d{stroke:#fff;}.b{stroke-width:5px;}.c{stroke-width:3px;}</style><radialGradient id="a" cx="63" cy="63" fx="55.41055570374086" fy="54.53820578463143" r="70.88" gradientUnits="userSpaceOnUse"><stop offset="0" stop-color="#b1d1fb"/><stop offset="0.46" stop-color="#0b6ffa"/><stop offset="0.7" stop-color="#0846aa"/><stop offset="1" stop-color="#151538"/></radialGradient><linearGradient id="b" x1="9.44" y1="35.24" x2="131.56" y2="105.76" gradientUnits="userSpaceOnUse"><stop offset="0" stop-color="#b8d2f5"/><stop offset="0.51" stop-color="#151538"/></linearGradient></defs><title>ball_33</title><circle class="a" cx="70.5" cy="70.5" r="70"/><circle class="b" cx="64.75" cy="67.25" r="50.75"/><circle class="c" cx="65" cy="67.5" r="57.5"/><path class="d" d="M31.51,83.38q.75-2.82,1.54-5.67,6.81,1.76,13.62,3.59c-.56,2.12-1.12,4.24-1.65,6.35-.79,3.08.11,5,2.63,5.7s4.17-.47,5-3.59c.37-1.45.75-2.91,1.13-4.37.94-3.6,1-6.15.24-7.61s-3-2.71-6.79-3.68c.93-3.37,1.9-6.76,2.88-10.15l2.42.61a7.21,7.21,0,0,0,4.56-.23,4.39,4.39,0,0,0,2.75-3.06q.71-2.57,1.43-5.13c.8-2.85.11-4.56-2-5.11s-3.9.66-4.79,3.71l-1.14,3.94Q46.61,57,40,55.51c1.7-6.38,4.37-10.92,7.84-13.57s8.27-3.27,14.58-1.63c5.21,1.36,9,3.71,11.23,6.94s2.73,7.67,1.25,13.3a22.74,22.74,0,0,1-3.62,8,10.85,10.85,0,0,1-7,3.86,9.2,9.2,0,0,1,4.56,6.68,26.59,26.59,0,0,1-1,9.85c-1.83,6.9-4.39,11.63-7.69,14.14s-8.17,2.78-14.75.77c-5.58-1.71-9.65-4.33-12.14-7.76S30.16,88.5,31.51,83.38Z" transform="translate(-8.5 -9.5)"/><path class="d" d="M69.46,93.83c.52-2,1-4,1.57-5.93q6.78,1.83,13.52,3.59L82.75,98c-.88,3.16-.08,5.07,2.38,5.7s4.14-.65,5.06-3.81c.43-1.47.86-2.94,1.28-4.41,1-3.62,1.18-6.15.41-7.61s-3-2.67-6.75-3.65C86.07,80.78,87,77.36,87.9,74l2.46.66a7.28,7.28,0,0,0,4.58-.15,4.22,4.22,0,0,0,2.7-3q.66-2.52,1.3-5c.7-2.77-.07-4.47-2.28-5.11-2.37-.67-3.92.49-4.69,3.51-.33,1.3-.66,2.6-1,3.9q-6.77-1.86-13.51-3.7c1.38-6.51,3.74-11,7.08-13.45s8.23-2.68,14.81-.66c5.42,1.66,9.4,4.14,11.86,7.32s3.08,7.4,1.67,12.76a20.94,20.94,0,0,1-3.59,7.71,11.25,11.25,0,0,1-7,3.77q4,2.5,4.43,6.43a24.12,24.12,0,0,1-1.37,9.58c-2.15,6.77-5,11.55-8.48,14.27s-8.23,3.36-14.53,1.73c-5.35-1.39-9.19-3.9-11.48-7.39S68,99.2,69.46,93.83Z" transform="translate(-8.5 -9.5)"/></svg>