<svg xmlns="http://www.w3.org/2000/svg" xmlns:xlink="http://www.w3.org/1999/xlink" viewBox="0 0 141 141"><defs><style>.a,.b,.c,.d{stroke-miterlimit:10;}.a{fill:url(#a);stroke:url(#b);}.b,.c{fill:none;opacity:0.6;}.b,.c,.d{stroke:#fff;}.b{stroke-width:5px;}.c{stroke-width:3px;}</style><radialGradient id="a" cx="63" cy="63" fx="55.41055570374086" fy="54.53820578463143" r="70.88" gradientUnits="userSpaceOnUse"><stop offset="0" stop-color="#b1d1fb"/><stop offset="0.46" stop-color="#0b6ffa"/><stop offset="0.7" stop-color="#0846aa"/><stop offset="1" stop-color="#151538"/></radialGradient><linearGradient id="b" x1="9.44" y1="35.24" x2="131.56" y2="105.76" gradientUnits="userSpaceOnUse"><stop offset="0" stop-color="#b8d2f5"/><stop offset="0.51" stop-color="#151538"/></linearGradient></defs><title>ball_43</title><circle class="a" cx="70.5" cy="70.5" r="70"/><circle class="b" cx="64.75" cy="67.25" r="50.75"/><circle class="c" cx="65" cy="67.5" r="57.5"/><path class="d" d="M30.18,86.32c1.05-4.12,2.19-8.28,3.39-12.47a92.94,92.94,0,0,0,11.21-16,116.39,116.39,0,0,0,8.76-18.64q6.9,1.66,13.92,3.57A68.18,68.18,0,0,1,57,61.19,105.66,105.66,0,0,1,41.06,77.66q5.1,1.34,10.21,2.71,1.13-4.23,2.3-8.46a57.78,57.78,0,0,0,7.57-7.7A46,46,0,0,0,66.79,56L72,57.39C69.66,66.28,67.23,75.17,64.88,84l4.74,1.28q-1.5,5.61-3,11.22L62,95.24c-1,3.9-2,7.81-2.89,11.69q-6.66-2-13.4-4Q47,97.2,48.41,91.42C42.35,89.71,36.26,88,30.18,86.32Z" transform="translate(-8.5 -9.5)"/><path class="d" d="M69.47,93.84c.52-2,1-4,1.58-5.93q6.78,1.83,13.52,3.58c-.6,2.16-1.21,4.32-1.81,6.49-.88,3.16-.08,5.07,2.38,5.7s4.14-.66,5.06-3.81c.43-1.47.86-3,1.28-4.41,1-3.62,1.19-6.15.42-7.61s-3-2.67-6.75-3.65Q86.56,79.07,87.92,74l2.45.66A7.27,7.27,0,0,0,95,74.47a4.16,4.16,0,0,0,2.7-3c.45-1.68.88-3.35,1.31-5,.7-2.78-.07-4.47-2.28-5.11-2.37-.67-3.92.49-4.69,3.51-.33,1.3-.66,2.6-1,3.9l-13.51-3.7q2.07-9.77,7.08-13.45c3.35-2.45,8.23-2.67,14.81-.66,5.43,1.66,9.41,4.13,11.87,7.31s3.07,7.4,1.66,12.76a20.94,20.94,0,0,1-3.59,7.71,11.26,11.26,0,0,1-7,3.77c2.68,1.68,4.17,3.81,4.44,6.43a24.33,24.33,0,0,1-1.38,9.58c-2.16,6.77-5,11.55-8.49,14.27s-8.23,3.36-14.53,1.73c-5.35-1.39-9.18-3.89-11.47-7.37S68.06,99.21,69.47,93.84Z" transform="translate(-8.5 -9.5)"/></svg>