<svg xmlns="http://www.w3.org/2000/svg" xmlns:xlink="http://www.w3.org/1999/xlink" viewBox="0 0 141 141"><defs><style>.a,.b,.c,.d{stroke-miterlimit:10;}.a{fill:url(#a);stroke:url(#b);}.b,.c{fill:none;opacity:0.6;}.b,.c,.d{stroke:#fff;}.b{stroke-width:5px;}.c{stroke-width:3px;}</style><radialGradient id="a" cx="63" cy="63" fx="55.41055570374086" fy="54.53820578463143" r="70.88" gradientUnits="userSpaceOnUse"><stop offset="0" stop-color="#b1d1fb"/><stop offset="0.46" stop-color="#0b6ffa"/><stop offset="0.7" stop-color="#0846aa"/><stop offset="1" stop-color="#151538"/></radialGradient><linearGradient id="b" x1="9.44" y1="35.24" x2="131.56" y2="105.76" gradientUnits="userSpaceOnUse"><stop offset="0" stop-color="#b8d2f5"/><stop offset="0.51" stop-color="#151538"/></linearGradient></defs><title>ball_66</title><circle class="a" cx="70.5" cy="70.5" r="70"/><circle class="b" cx="64.75" cy="67.25" r="50.75"/><circle class="c" cx="65" cy="67.5" r="57.5"/><path class="d" d="M31.78,83.68C34.5,73.35,37.72,62.8,41.14,52.1a18,18,0,0,1,8-10.51c3.75-2.16,8.16-2.63,13.42-1.26C72.92,43.08,77,50,74.25,60.62c-4.18-1.14-8.35-2.26-12.5-3.33,1-3.49.21-5.56-2.25-6.18s-4.18.81-5.2,4.28c-.67,2.34-1.35,4.68-2,7l.11.19a9.42,9.42,0,0,1,4.13-2,12.13,12.13,0,0,1,4.69.44c4.84,1.27,7.82,3.61,8.92,7s1,7.71-.31,13q-1.65,6.13-3.24,12.25c-1.28,4.9-3.75,8.33-7.41,10.26s-8.17,2-13.65.36-9.4-4.35-11.84-8A14.29,14.29,0,0,1,31.78,83.68ZM49.57,73.8q-2.05,7.42-3.93,14.76c-.67,2.62.13,4.25,2.34,4.88s3.63-.37,4.3-3Q54.17,83,56.2,75.54c.73-2.67,0-4.3-2.21-4.87S50.3,71.15,49.57,73.8Z" transform="translate(-8.5 -9.5)"/><path class="d" d="M69.72,94.15c2.86-10.86,5.84-21.74,8.66-32.57,1.27-4.89,3.74-8.33,7.4-10.25s8.16-2,13.64-.35c10.82,3.41,15.42,10,12.77,20.11q-6.34-1.73-12.69-3.48c.87-3.39,0-5.44-2.52-6.17s-4.2.62-5.08,4.06q-.89,3.47-1.81,7l.12.2a8.94,8.94,0,0,1,4.11-1.9,12.71,12.71,0,0,1,4.73.54c4.92,1.34,8,3.63,9,6.88s.94,7.41-.53,12.56q-1.81,6-3.77,12a17.91,17.91,0,0,1-8,10.5c-3.74,2.17-8.16,2.65-13.41,1.29s-8.94-3.92-11.18-7.59S68.44,99,69.72,94.15ZM87.51,83.88c-1.37,5-2.78,10-4.18,15-.75,2.69,0,4.32,2.11,4.86s3.61-.53,4.4-3.21Q92,93,94.13,85.59c.75-2.66,0-4.27-2.2-4.85S88.24,81.2,87.51,83.88Z" transform="translate(-8.5 -9.5)"/></svg>