<svg xmlns="http://www.w3.org/2000/svg" xmlns:xlink="http://www.w3.org/1999/xlink" viewBox="0 0 141 141"><defs><style>.a,.b,.c,.d{stroke-miterlimit:10;}.a{fill:url(#a);stroke:url(#b);}.b,.c{fill:none;opacity:0.6;}.b,.c,.d{stroke:#fff;}.b{stroke-width:5px;}.c{stroke-width:3px;}</style><radialGradient id="a" cx="63" cy="63" fx="55.41055570374086" fy="54.53820578463143" r="70.88" gradientUnits="userSpaceOnUse"><stop offset="0" stop-color="#b1d1fb"/><stop offset="0.46" stop-color="#0b6ffa"/><stop offset="0.7" stop-color="#0846aa"/><stop offset="1" stop-color="#151538"/></radialGradient><linearGradient id="b" x1="9.44" y1="35.24" x2="131.56" y2="105.76" gradientUnits="userSpaceOnUse"><stop offset="0" stop-color="#b8d2f5"/><stop offset="0.51" stop-color="#151538"/></linearGradient></defs><title>ball_26</title><circle class="a" cx="70.5" cy="70.5" r="70"/><circle class="b" cx="64.75" cy="67.25" r="50.75"/><circle class="c" cx="65" cy="67.5" r="57.5"/><path class="d" d="M41.18,57.92l1.5-4.83c2.26-6.12,5.17-10.34,8.63-12.56s8-2.64,13.84-1.09c5.21,1.4,8.92,4,11.1,7.55s2.61,8.11,1.19,13.53A21.83,21.83,0,0,1,73,69.68a29.68,29.68,0,0,1-7.38,5.86q-4.41,2.55-9,5.15a37.07,37.07,0,0,0-7.77,5.72,13,13,0,0,0-1.22,1.49,12.06,12.06,0,0,0-1.07,1.53c7.1,2,14.17,4,21.19,5.9q-1.51,5.85-3,11.68c-11.61-3.33-23.44-6.93-35.38-10.51.27-1.22.55-2.44.83-3.66,1.61-5.71,4-10.15,7-13.29a53.68,53.68,0,0,1,12-9,90.55,90.55,0,0,0,10.16-6.48c1.84-1.47,3.22-3.88,4.15-7.26,1.08-3.91.34-6.2-2.17-6.85S57,51,55.88,54.88Q55,58,54.1,61.11,47.61,59.46,41.18,57.92Z" transform="translate(-8.5 -9.5)"/><path class="d" d="M72.19,93.25c2.88-10.86,5.87-21.73,8.66-32.56,1.26-4.88,3.72-8.31,7.37-10.22s8.15-2,13.64-.35c10.83,3.38,15.46,10,12.82,20.07q-6.36-1.71-12.7-3.47c.87-3.39,0-5.43-2.53-6.15s-4.2.62-5.07,4q-.87,3.47-1.8,7l.12.2a9,9,0,0,1,4.1-1.9,12.74,12.74,0,0,1,4.74.54c4.92,1.33,7.95,3.63,9,6.87s.94,7.41-.54,12.56q-1.85,6-3.81,12a18,18,0,0,1-8,10.49c-3.76,2.16-8.18,2.63-13.42,1.29s-8.91-3.89-11.13-7.55S70.9,98.11,72.19,93.25ZM90,83q-2.07,7.47-4.21,15c-.76,2.69-.06,4.32,2.09,4.86s3.61-.54,4.4-3.21q2.22-7.48,4.33-14.92c.76-2.65,0-4.26-2.19-4.84S90.74,80.3,90,83Z" transform="translate(-8.5 -9.5)"/></svg>