<svg xmlns="http://www.w3.org/2000/svg" xmlns:xlink="http://www.w3.org/1999/xlink" viewBox="0 0 141 141"><defs><style>.a,.b,.c,.d{stroke-miterlimit:10;}.a{fill:url(#a);stroke:url(#b);}.b,.c{fill:none;opacity:0.6;}.b,.c,.d{stroke:#fff;}.b{stroke-width:5px;}.c{stroke-width:3px;}</style><radialGradient id="a" cx="63" cy="63" fx="55.41055570374086" fy="54.53820578463143" r="70.88" gradientUnits="userSpaceOnUse"><stop offset="0" stop-color="#b1d1fb"/><stop offset="0.46" stop-color="#0b6ffa"/><stop offset="0.7" stop-color="#0846aa"/><stop offset="1" stop-color="#151538"/></radialGradient><linearGradient id="b" x1="9.44" y1="35.24" x2="131.56" y2="105.76" gradientUnits="userSpaceOnUse"><stop offset="0" stop-color="#b8d2f5"/><stop offset="0.51" stop-color="#151538"/></linearGradient></defs><title>ball_57</title><circle class="a" cx="70.5" cy="70.5" r="70"/><circle class="b" cx="64.75" cy="67.25" r="50.75"/><circle class="c" cx="65" cy="67.5" r="57.5"/><path class="d" d="M37.17,71.19C40.34,60.2,43.92,49,47.6,37.71c9.94,2.21,20.12,4.87,30.47,7.77q-1.48,5.85-3,11.7C68.37,55.38,61.76,53.64,55.2,52c-.91,3.1-1.81,6.2-2.7,9.28l.16,0a12.56,12.56,0,0,1,8-.56c9.6,2.49,13.1,8.9,10.39,19-.78,2.93-1.56,5.85-2.32,8.77a35.39,35.39,0,0,1-4.53,10.78,12.49,12.49,0,0,1-7.16,5.33c-2.93.8-6.5.53-10.78-.78-5.57-1.72-9.65-4.34-12.15-7.78S31,88.45,32.31,83.34c.45-1.73.91-3.46,1.39-5.21q6.81,1.78,13.63,3.64c-.52,2-1,3.92-1.52,5.87-.77,3.08.14,5,2.66,5.71s4.16-.46,4.94-3.58c1.12-4.46,2.3-9,3.51-13.45.85-3.14,0-5-2.5-5.7s-4.23.58-5.09,3.69Q43.24,72.72,37.17,71.19Z" transform="translate(-8.5 -9.5)"/><path class="d" d="M78.71,58.18c1-3.89,2-7.79,3-11.67,11.8,3.35,23.8,7,35.91,10.57q-1.12,5-2.42,10-3,2.82-5,4.94a74.76,74.76,0,0,0-8.17,10.41,121.65,121.65,0,0,0-12.9,25.15c-.27.72-.6,1.66-1,2.8s-.89,2.49-1.44,4q-7.11-1.81-14.36-3.88c.45-1.57,1.19-3.73,2.24-6.49a87.48,87.48,0,0,1,9-17.56A181.78,181.78,0,0,1,96.85,69.39c.49-.59,1.11-1.3,1.86-2.12s1.6-1.77,2.55-2.83C93.71,62.34,86.19,60.23,78.71,58.18Z" transform="translate(-8.5 -9.5)"/></svg>