<svg xmlns="http://www.w3.org/2000/svg" xmlns:xlink="http://www.w3.org/1999/xlink" viewBox="0 0 141 141"><defs><style>.a,.b,.c,.d{stroke-miterlimit:10;}.a{fill:url(#a);stroke:url(#b);}.b,.c{fill:none;opacity:0.6;}.b,.c,.d{stroke:#fff;}.b{stroke-width:5px;}.c{stroke-width:3px;}</style><radialGradient id="a" cx="63" cy="63" fx="55.41055570374086" fy="54.53820578463143" r="70.88" gradientUnits="userSpaceOnUse"><stop offset="0" stop-color="#b1d1fb"/><stop offset="0.46" stop-color="#0b6ffa"/><stop offset="0.7" stop-color="#0846aa"/><stop offset="1" stop-color="#151538"/></radialGradient><linearGradient id="b" x1="9.44" y1="35.24" x2="131.56" y2="105.76" gradientUnits="userSpaceOnUse"><stop offset="0" stop-color="#b8d2f5"/><stop offset="0.51" stop-color="#151538"/></linearGradient></defs><title>ball_74</title><circle class="a" cx="70.5" cy="70.5" r="70"/><circle class="b" cx="64.75" cy="67.25" r="50.75"/><circle class="c" cx="65" cy="67.5" r="57.5"/><path class="d" d="M40.62,48.87c1.22-3.84,2.47-7.7,3.72-11.58C55.65,39.56,67.25,42.6,79.05,46q-1.3,5.22-2.68,10.48c-2,2-3.69,3.7-5,5.16a80,80,0,0,0-8.16,10.67,121.11,121.11,0,0,0-7,12.33A103.62,103.62,0,0,0,51,97.22l-.87,2.72c-.35,1.11-.77,2.42-1.23,3.93C44,102.35,39,100.79,34,99.23c.39-1.47,1.06-3.5,2-6.11A78.65,78.65,0,0,1,44.8,76.29a204.7,204.7,0,0,1,13.33-17.1c.5-.61,1.14-1.33,1.9-2.18s1.64-1.83,2.61-2.94C55.23,52.16,47.88,50.39,40.62,48.87Z" transform="translate(-8.5 -9.5)"/><path class="d" d="M68.08,97q1.71-6.51,3.46-13A91.44,91.44,0,0,0,82.4,67.65a96.8,96.8,0,0,0,7.83-18.33q7.22,2.18,14.51,4.45a59.72,59.72,0,0,1-9.92,17.61A115.24,115.24,0,0,1,79,87.85q5.07,1.34,10.13,2.62,1.2-4.25,2.37-8.48a59.89,59.89,0,0,0,7.54-7.57,42,42,0,0,0,5.53-7.89L109.9,68c-2.2,8.42-4.68,17-7.32,25.7l4.66,1.05c-1.13,3.64-2.3,7.29-3.48,11-1.52-.31-3.05-.63-4.57-1-1.21,3.88-2.43,7.79-3.66,11.7-4.26-.9-8.56-1.91-12.89-3q1.67-5.91,3.34-11.8C80.05,100.19,74.08,98.6,68.08,97Z" transform="translate(-8.5 -9.5)"/></svg>