<svg xmlns="http://www.w3.org/2000/svg" xmlns:xlink="http://www.w3.org/1999/xlink" viewBox="0 0 141 141"><defs><style>.a,.b,.c,.d{stroke-miterlimit:10;}.a{fill:url(#a);stroke:url(#b);}.b,.c{fill:none;opacity:0.6;}.b,.c,.d{stroke:#fff;}.b{stroke-width:5px;}.c{stroke-width:3px;}</style><radialGradient id="a" cx="63" cy="63" fx="55.41055570374086" fy="54.53820578463143" r="70.88" gradientUnits="userSpaceOnUse"><stop offset="0" stop-color="#b1d1fb"/><stop offset="0.46" stop-color="#0b6ffa"/><stop offset="0.7" stop-color="#0846aa"/><stop offset="1" stop-color="#151538"/></radialGradient><linearGradient id="b" x1="9.44" y1="35.24" x2="131.56" y2="105.76" gradientUnits="userSpaceOnUse"><stop offset="0" stop-color="#b8d2f5"/><stop offset="0.51" stop-color="#151538"/></linearGradient></defs><title>ball_70</title><circle class="a" cx="70.5" cy="70.5" r="70"/><circle class="b" cx="64.75" cy="67.25" r="50.75"/><circle class="c" cx="65" cy="67.5" r="57.5"/><path class="d" d="M40.56,48.9q1.86-5.74,3.77-11.56C55.62,39.66,67.22,42.67,79,46c-.88,3.5-1.79,7-2.7,10.5q-3.06,3-5,5.18a78.52,78.52,0,0,0-8.17,10.67,117,117,0,0,0-7,12.31A99.86,99.86,0,0,0,51,97.22c-.23.71-.52,1.62-.86,2.73s-.75,2.41-1.2,3.92L34,99.23c.38-1.47,1-3.5,2-6.11a76.91,76.91,0,0,1,8.7-16.81A202.72,202.72,0,0,1,58.05,59.24c.5-.6,1.14-1.33,1.91-2.18s1.63-1.82,2.61-2.93C55.16,52.22,47.82,50.45,40.56,48.9Z" transform="translate(-8.5 -9.5)"/><path class="d" d="M69.66,94.22c2.84-10.85,5.82-21.73,8.67-32.57,1.29-4.9,3.77-8.34,7.46-10.28S94,49.32,99.5,51a24.4,24.4,0,0,1,8.9,4.69,14.65,14.65,0,0,1,4.75,7.06,15.41,15.41,0,0,1,0,8.44c-2.79,10.35-6,20.91-9.4,31.62-1.54,4.83-4.22,8.37-7.95,10.54s-8.15,2.65-13.41,1.28-8.95-3.94-11.19-7.62S68.39,99.07,69.66,94.22Zm23-29.72C89.71,75.89,86.48,87.41,83.27,99c-.74,2.69,0,4.32,2.12,4.87s3.61-.54,4.38-3.22c3.32-11.54,6.6-23,9.52-34.27.68-2.63-.11-4.25-2.32-4.88S93.32,61.85,92.64,64.5Z" transform="translate(-8.5 -9.5)"/></svg>