<svg xmlns="http://www.w3.org/2000/svg" xmlns:xlink="http://www.w3.org/1999/xlink" viewBox="0 0 141 141"><defs><style>.a,.b,.c,.d{stroke-miterlimit:10;}.a{fill:url(#a);stroke:url(#b);}.b,.c{fill:none;opacity:0.6;}.b,.c,.d{stroke:#fff;}.b{stroke-width:5px;}.c{stroke-width:3px;}</style><radialGradient id="a" cx="63" cy="63" fx="55.41055570374086" fy="54.53820578463143" r="70.88" gradientUnits="userSpaceOnUse"><stop offset="0" stop-color="#b1d1fb"/><stop offset="0.46" stop-color="#0b6ffa"/><stop offset="0.7" stop-color="#0846aa"/><stop offset="1" stop-color="#151538"/></radialGradient><linearGradient id="b" x1="9.44" y1="35.24" x2="131.56" y2="105.76" gradientUnits="userSpaceOnUse"><stop offset="0" stop-color="#b8d2f5"/><stop offset="0.51" stop-color="#151538"/></linearGradient></defs><title>ball_07</title><circle class="a" cx="70.5" cy="70.5" r="70"/><circle class="b" cx="64.75" cy="67.25" r="50.75"/><circle class="c" cx="65" cy="67.5" r="57.5"/><path class="d" d="M58,53.62q1.71-5.82,3.42-11.71C72.85,44.16,84.59,48,96.52,52.2q-1.14,4.89-2.43,9.91c-2,1.82-3.65,3.46-4.93,4.86a71.28,71.28,0,0,0-8.11,10.49,120.65,120.65,0,0,0-7,12.4,109.55,109.55,0,0,0-5.26,12.72l-.89,2.76c-.36,1.13-.78,2.45-1.25,4-4.81-1.57-9.67-3.32-14.57-5.2.37-1.44,1-3.42,2-6a79.26,79.26,0,0,1,8.64-16.75A197.53,197.53,0,0,1,75.81,64.24c.5-.6,1.13-1.32,1.88-2.15s1.61-1.79,2.56-2.87C72.77,57.08,65.35,55.12,58,53.62Z" transform="translate(-8.5 -9.5)"/></svg>