<svg xmlns="http://www.w3.org/2000/svg" xmlns:xlink="http://www.w3.org/1999/xlink" viewBox="0 0 141 141"><defs><style>.a,.b,.c,.d{stroke-miterlimit:10;}.a{fill:url(#a);stroke:url(#b);}.b,.c{fill:none;opacity:0.6;}.b,.c,.d{stroke:#fff;}.b{stroke-width:5px;}.c{stroke-width:3px;}</style><radialGradient id="a" cx="63" cy="63" fx="55.41055570374086" fy="54.53820578463143" r="70.88" gradientUnits="userSpaceOnUse"><stop offset="0" stop-color="#b1d1fb"/><stop offset="0.46" stop-color="#0b6ffa"/><stop offset="0.7" stop-color="#0846aa"/><stop offset="1" stop-color="#151538"/></radialGradient><linearGradient id="b" x1="9.44" y1="35.24" x2="131.56" y2="105.76" gradientUnits="userSpaceOnUse"><stop offset="0" stop-color="#b8d2f5"/><stop offset="0.51" stop-color="#151538"/></linearGradient></defs><title>ball_36</title><circle class="a" cx="70.5" cy="70.5" r="70"/><circle class="b" cx="64.75" cy="67.25" r="50.75"/><circle class="c" cx="65" cy="67.5" r="57.5"/><path class="d" d="M31.53,83.38q.75-2.82,1.54-5.67,6.81,1.76,13.62,3.59-.86,3.18-1.66,6.35c-.78,3.09.11,5,2.64,5.71s4.16-.47,5-3.59c.37-1.46.75-2.92,1.13-4.38.94-3.6,1-6.14.24-7.61s-3.06-2.7-6.8-3.67Q48.61,69,50.08,63.94l2.43.62a7.21,7.21,0,0,0,4.56-.23,4.37,4.37,0,0,0,2.74-3.06c.48-1.71.95-3.42,1.43-5.14.8-2.84.11-4.55-2-5.1-2.31-.59-3.9.66-4.79,3.71l-1.14,3.94Q46.63,57,40.05,55.51c1.69-6.38,4.37-10.93,7.83-13.58s8.27-3.26,14.58-1.62c5.21,1.36,9,3.72,11.24,6.94S76.43,54.92,75,60.56a22.9,22.9,0,0,1-3.61,8,10.84,10.84,0,0,1-7,3.85,9.15,9.15,0,0,1,4.56,6.68,26.24,26.24,0,0,1-1,9.86q-2.73,10.35-7.69,14.14c-3.32,2.52-8.17,2.78-14.74.76-5.58-1.71-9.65-4.33-12.14-7.76S30.18,88.5,31.53,83.38Z" transform="translate(-8.5 -9.5)"/><path class="d" d="M69.72,94.15c2.86-10.85,5.85-21.73,8.67-32.57,1.27-4.89,3.74-8.32,7.4-10.24s8.16-2,13.64-.35c10.83,3.4,15.42,10,12.77,20.1q-6.35-1.73-12.69-3.48c.87-3.39,0-5.44-2.52-6.16s-4.2.62-5.08,4Q91,69,90.1,72.45l.12.2a8.82,8.82,0,0,1,4.1-1.89,12.71,12.71,0,0,1,4.74.53c4.92,1.34,8,3.63,9,6.88s.94,7.41-.53,12.56q-1.83,6-3.77,12a18,18,0,0,1-8,10.51c-3.74,2.17-8.16,2.65-13.41,1.29s-8.93-3.92-11.17-7.58S68.45,99,69.72,94.15Zm17.8-10.27q-2.07,7.49-4.18,15c-.75,2.69,0,4.32,2.1,4.86s3.62-.53,4.4-3.21c1.45-5,2.9-10,4.29-14.93.76-2.66,0-4.27-2.2-4.85S88.25,81.21,87.52,83.88Z" transform="translate(-8.5 -9.5)"/></svg>