<svg xmlns="http://www.w3.org/2000/svg" xmlns:xlink="http://www.w3.org/1999/xlink" viewBox="0 0 141 141"><defs><style>.a,.b,.c,.d{stroke-miterlimit:10;}.a{fill:url(#a);stroke:url(#b);}.b,.c{fill:none;opacity:0.6;}.b,.c,.d{stroke:#fff;}.b{stroke-width:5px;}.c{stroke-width:3px;}</style><radialGradient id="a" cx="63" cy="63" fx="55.41055570374086" fy="54.53820578463143" r="70.88" gradientUnits="userSpaceOnUse"><stop offset="0" stop-color="#b1d1fb"/><stop offset="0.46" stop-color="#0b6ffa"/><stop offset="0.7" stop-color="#0846aa"/><stop offset="1" stop-color="#151538"/></radialGradient><linearGradient id="b" x1="9.44" y1="35.24" x2="131.56" y2="105.76" gradientUnits="userSpaceOnUse"><stop offset="0" stop-color="#b8d2f5"/><stop offset="0.51" stop-color="#151538"/></linearGradient></defs><title>ball_90</title><circle class="a" cx="70.5" cy="70.5" r="70"/><circle class="b" cx="64.75" cy="67.25" r="50.75"/><circle class="c" cx="65" cy="67.5" r="57.5"/><path class="d" d="M75.2,60.71c-2.85,10.86-5.84,21.74-8.66,32.58-1.27,4.89-3.74,8.32-7.39,10.24s-8.17,2-13.65.35c-10.82-3.41-15.42-10-12.77-20.1q6.36,1.71,12.69,3.48c-.86,3.39,0,5.44,2.52,6.16s4.21-.62,5.08-4q.88-3.47,1.81-7l-.12-.2a8.25,8.25,0,0,1-4,1.88,12.63,12.63,0,0,1-4.83-.53C41,82.25,38,80,36.88,76.79s-1-7.39.47-12.66c1.21-4,2.48-8,3.77-12a18,18,0,0,1,8-10.51c3.74-2.16,8.16-2.64,13.42-1.28A19.74,19.74,0,0,1,71,44.68a14,14,0,0,1,4.4,7.19A17.6,17.6,0,0,1,75.2,60.71ZM57.41,71q2.07-7.47,4.18-15c.75-2.69,0-4.32-2.11-4.87s-3.61.54-4.39,3.22q-2.19,7.5-4.29,14.93c-.76,2.66,0,4.27,2.2,4.85S56.68,73.66,57.41,71Z" transform="translate(-8.5 -9.5)"/><path class="d" d="M69.69,94.15c2.84-10.85,5.83-21.74,8.66-32.58,1.27-4.89,3.75-8.33,7.41-10.26s8.16-2,13.64-.36a24.58,24.58,0,0,1,8.9,4.71,14.86,14.86,0,0,1,4.8,7.08,15.3,15.3,0,0,1,0,8.44c-2.72,10.33-5.94,20.88-9.36,31.58a17.84,17.84,0,0,1-8,10.51c-3.75,2.16-8.16,2.63-13.42,1.27s-8.94-3.94-11.18-7.61S68.41,99,69.69,94.15Zm23-29.7c-2.89,11.38-6.12,22.88-9.33,34.44-.75,2.69,0,4.32,2.11,4.87s3.61-.53,4.39-3.22c3.34-11.52,6.61-23,9.47-34.23.67-2.63-.12-4.25-2.33-4.88S93.31,61.8,92.64,64.45Z" transform="translate(-8.5 -9.5)"/></svg>