<svg xmlns="http://www.w3.org/2000/svg" xmlns:xlink="http://www.w3.org/1999/xlink" viewBox="0 0 141 141"><defs><style>.a,.b,.c,.d{stroke-miterlimit:10;}.a{fill:url(#a);stroke:url(#b);}.b,.c{fill:none;opacity:0.6;}.b,.c,.d{stroke:#fff;}.b{stroke-width:5px;}.c{stroke-width:3px;}</style><radialGradient id="a" cx="63" cy="63" fx="55.41055570374086" fy="54.53820578463143" r="70.88" gradientUnits="userSpaceOnUse"><stop offset="0" stop-color="#b1d1fb"/><stop offset="0.46" stop-color="#0b6ffa"/><stop offset="0.7" stop-color="#0846aa"/><stop offset="1" stop-color="#151538"/></radialGradient><linearGradient id="b" x1="9.44" y1="35.24" x2="131.56" y2="105.76" gradientUnits="userSpaceOnUse"><stop offset="0" stop-color="#b8d2f5"/><stop offset="0.51" stop-color="#151538"/></linearGradient></defs><title>ball_23</title><circle class="a" cx="70.5" cy="70.5" r="70"/><circle class="b" cx="64.75" cy="67.25" r="50.75"/><circle class="c" cx="65" cy="67.5" r="57.5"/><path class="d" d="M40.56,58l1.5-4.83c2.25-6.12,5.17-10.34,8.63-12.56s8-2.64,13.84-1.09c5.21,1.4,8.92,4,11.09,7.55s2.62,8.11,1.2,13.53a21.77,21.77,0,0,1-4.49,9.16A29.89,29.89,0,0,1,65,75.65q-4.41,2.53-9,5.14a37.07,37.07,0,0,0-7.77,5.72A13,13,0,0,0,47,88a12.82,12.82,0,0,0-1.07,1.53c7.1,2,14.17,4,21.19,5.91-1,3.89-2,7.79-3,11.67-11.61-3.32-23.44-6.93-35.37-10.51.26-1.21.54-2.43.82-3.66,1.61-5.71,4-10.15,7-13.29a53.68,53.68,0,0,1,12-9,92.39,92.39,0,0,0,10.16-6.47Q61.48,62,62.87,57c1.07-3.9.34-6.2-2.17-6.85s-4.32,1-5.44,4.88c-.6,2.08-1.19,4.16-1.79,6.23Q47,59.56,40.56,58Z" transform="translate(-8.5 -9.5)"/><path class="d" d="M70.53,92.82c.53-2,1-3.95,1.58-5.93q6.78,1.83,13.52,3.58c-.6,2.15-1.21,4.31-1.81,6.48-.89,3.16-.1,5.07,2.36,5.69s4.14-.66,5.07-3.81l1.29-4.4c1.06-3.62,1.19-6.14.43-7.6s-3-2.67-6.75-3.65Q87.63,78.07,89,73l2.45.66A7.27,7.27,0,0,0,96,73.46a4.15,4.15,0,0,0,2.7-3q.66-2.52,1.29-5c.7-2.78-.07-4.47-2.28-5.11-2.38-.67-3.92.49-4.68,3.5-.33,1.3-.66,2.6-1,3.9l-13.51-3.7c1.37-6.5,3.71-11,7-13.44S93.8,48,100.38,50c5.43,1.66,9.41,4.12,11.88,7.3s3.1,7.4,1.7,12.76a20.78,20.78,0,0,1-3.58,7.71,11.2,11.2,0,0,1-7,3.76c2.67,1.68,4.16,3.81,4.43,6.43a24,24,0,0,1-1.4,9.58c-2.17,6.76-5.08,11.53-8.52,14.24s-8.25,3.35-14.54,1.73c-5.35-1.38-9.17-3.87-11.45-7.35S69.11,98.2,70.53,92.82Z" transform="translate(-8.5 -9.5)"/></svg>