<svg xmlns="http://www.w3.org/2000/svg" xmlns:xlink="http://www.w3.org/1999/xlink" viewBox="0 0 141 141"><defs><style>.a,.b,.c,.d{stroke-miterlimit:10;}.a{fill:url(#a);stroke:url(#b);}.b,.c{fill:none;opacity:0.6;}.b,.c,.d{stroke:#fff;}.b{stroke-width:5px;}.c{stroke-width:3px;}</style><radialGradient id="a" cx="63" cy="63" fx="55.41055570374086" fy="54.53820578463143" r="70.88" gradientUnits="userSpaceOnUse"><stop offset="0" stop-color="#b1d1fb"/><stop offset="0.46" stop-color="#0b6ffa"/><stop offset="0.7" stop-color="#0846aa"/><stop offset="1" stop-color="#151538"/></radialGradient><linearGradient id="b" x1="9.44" y1="35.24" x2="131.56" y2="105.76" gradientUnits="userSpaceOnUse"><stop offset="0" stop-color="#b8d2f5"/><stop offset="0.51" stop-color="#151538"/></linearGradient></defs><title>ball_53</title><circle class="a" cx="70.5" cy="70.5" r="70"/><circle class="b" cx="64.75" cy="67.25" r="50.75"/><circle class="c" cx="65" cy="67.5" r="57.5"/><path class="d" d="M38.26,71.18C41.43,60.18,45,49,48.6,37.66c10,2.19,20.15,4.87,30.5,7.81q-1.47,5.84-3,11.69C69.43,55.34,62.82,53.59,56.26,52c-.9,3.1-1.8,6.2-2.68,9.29l.15,0a12.53,12.53,0,0,1,8.05-.57c9.59,2.5,13.11,8.91,10.39,19-.78,2.92-1.56,5.85-2.33,8.77a35.45,35.45,0,0,1-4.56,10.79,12.49,12.49,0,0,1-7.19,5.34c-2.94.8-6.52.54-10.79-.77-5.58-1.72-9.65-4.35-12.13-7.79S32,88.45,33.37,83.34q.69-2.59,1.41-5.21,6.81,1.78,13.62,3.63-.78,2.94-1.52,5.88c-.79,3.08.11,5,2.63,5.71s4.17-.47,5-3.59Q56.18,83.06,58,76.3c.85-3.14,0-5.06-2.51-5.71s-4.23.59-5.08,3.7Q44.33,72.7,38.26,71.18Z" transform="translate(-8.5 -9.5)"/><path class="d" d="M71.46,93.89c.52-2,1.05-4,1.57-5.93q6.78,1.82,13.52,3.58L84.75,98c-.88,3.17-.08,5.08,2.37,5.7s4.14-.66,5.06-3.81c.43-1.47.86-3,1.28-4.41,1.05-3.63,1.18-6.15.42-7.61s-3-2.67-6.75-3.65C88.07,80.83,89,77.41,89.91,74l2.45.66a7.34,7.34,0,0,0,4.58-.16,4.21,4.21,0,0,0,2.71-3q.67-2.52,1.32-5c.71-2.78-.06-4.48-2.27-5.11-2.37-.67-3.92.49-4.7,3.51-.33,1.3-.67,2.6-1,3.91L79.47,65.11c1.38-6.51,3.75-11,7.11-13.46S94.85,49,101.44,51c5.43,1.66,9.41,4.12,11.86,7.3s3,7.39,1.6,12.75a21.08,21.08,0,0,1-3.61,7.72,11.22,11.22,0,0,1-7,3.78c2.68,1.68,4.16,3.81,4.43,6.43a24.33,24.33,0,0,1-1.38,9.58c-2.15,6.78-5,11.56-8.46,14.28s-8.23,3.38-14.53,1.75c-5.36-1.39-9.19-3.89-11.48-7.38S70.05,99.26,71.46,93.89Z" transform="translate(-8.5 -9.5)"/></svg>