<svg xmlns="http://www.w3.org/2000/svg" xmlns:xlink="http://www.w3.org/1999/xlink" viewBox="0 0 141 141"><defs><style>.a,.b,.c,.d{stroke-miterlimit:10;}.a{fill:url(#a);stroke:url(#b);}.b,.c{fill:none;opacity:0.6;}.b,.c,.d{stroke:#fff;}.b{stroke-width:5px;}.c{stroke-width:3px;}</style><radialGradient id="a" cx="63" cy="63" fx="55.41055570374086" fy="54.53820578463143" r="70.88" gradientUnits="userSpaceOnUse"><stop offset="0" stop-color="#b1d1fb"/><stop offset="0.46" stop-color="#0b6ffa"/><stop offset="0.7" stop-color="#0846aa"/><stop offset="1" stop-color="#151538"/></radialGradient><linearGradient id="b" x1="9.44" y1="35.24" x2="131.56" y2="105.76" gradientUnits="userSpaceOnUse"><stop offset="0" stop-color="#b8d2f5"/><stop offset="0.51" stop-color="#151538"/></linearGradient></defs><title>ball_85</title><circle class="a" cx="70.5" cy="70.5" r="70"/><circle class="b" cx="64.75" cy="67.25" r="50.75"/><circle class="c" cx="65" cy="67.5" r="57.5"/><path class="d" d="M31.73,83.68q.64-2.48,1.34-5a22.88,22.88,0,0,1,3.53-7.64c1.47-2,3.9-3.15,7.27-3.53-3.66-2.69-4.88-6.35-3.65-11.11.45-1.4.89-2.8,1.34-4.2a30,30,0,0,1,3.11-6.76,13.54,13.54,0,0,1,6.28-5c2.91-1.27,6.73-1.34,11.58-.08S70.79,43.53,72.72,46a12.27,12.27,0,0,1,3,7.3,27.28,27.28,0,0,1-1,7.28c-.37,1.42-.75,2.85-1.13,4.27a11.3,11.3,0,0,1-3.06,5,10.71,10.71,0,0,1-6.42,3q4.23,2.82,4.78,6.19c.36,2.24,0,5.29-1,9.13-.46,1.74-.92,3.47-1.37,5.21-1.27,4.89-3.74,8.33-7.39,10.25s-8.16,2-13.64.36-9.41-4.34-11.86-8A14.29,14.29,0,0,1,31.73,83.68Zm16.44-5q-1.34,5-2.58,9.85c-.66,2.62.13,4.24,2.34,4.87s3.64-.37,4.31-3q1.24-4.93,2.58-9.92c.71-2.66,0-4.3-2.25-4.88S48.89,76.07,48.17,78.71Zm6.9-24.37c-.56,1.92-1.11,3.84-1.67,5.75-.77,2.67,0,4.28,2.14,4.85s3.67-.49,4.42-3.18L61.58,56c.75-2.69,0-4.32-2.11-4.87S55.86,51.66,55.07,54.34Z" transform="translate(-8.5 -9.5)"/><path class="d" d="M74.15,81.12c3-11.36,6.11-22.73,8.84-34,10.38,3,20.92,6.24,31.55,9.46-.8,3.68-1.69,7.38-2.63,11.1C105.16,65.81,98.43,63.9,91.72,62c-.77,3.07-1.57,6.15-2.38,9.24l.16,0a12.63,12.63,0,0,1,8.08-.4c9.71,2.68,13.33,8.76,10.34,18.59q-1.29,4.27-2.65,8.59a37.55,37.55,0,0,1-5.12,10.76,15.11,15.11,0,0,1-7.46,5.75c-2.94,1-6.43,1-10.53-.09-5.36-1.41-9.2-3.92-11.5-7.41s-2.8-7.92-1.39-13.29q.7-2.73,1.43-5.46c4.52,1.22,9,2.43,13.53,3.6-.56,2-1.11,4-1.67,6q-1.31,4.75,2.39,5.72c2.46.63,4.14-.65,5.06-3.81,1.3-4.52,2.6-9,3.87-13.53.88-3.14.05-5-2.48-5.69s-4.22.57-5.08,3.72Q80.25,82.76,74.15,81.12Z" transform="translate(-8.5 -9.5)"/></svg>