<svg xmlns="http://www.w3.org/2000/svg" xmlns:xlink="http://www.w3.org/1999/xlink" viewBox="0 0 141 141"><defs><style>.a,.b,.c,.d{stroke-miterlimit:10;}.a{fill:url(#a);stroke:url(#b);}.b,.c{fill:none;opacity:0.6;}.b,.c,.d{stroke:#fff;}.b{stroke-width:5px;}.c{stroke-width:3px;}</style><radialGradient id="a" cx="63" cy="63" fx="55.41055570374086" fy="54.53820578463143" r="70.88" gradientUnits="userSpaceOnUse"><stop offset="0" stop-color="#b1d1fb"/><stop offset="0.46" stop-color="#0b6ffa"/><stop offset="0.7" stop-color="#0846aa"/><stop offset="1" stop-color="#151538"/></radialGradient><linearGradient id="b" x1="9.44" y1="35.24" x2="131.56" y2="105.76" gradientUnits="userSpaceOnUse"><stop offset="0" stop-color="#b8d2f5"/><stop offset="0.51" stop-color="#151538"/></linearGradient></defs><title>ball_35</title><circle class="a" cx="70.5" cy="70.5" r="70"/><circle class="b" cx="64.75" cy="67.25" r="50.75"/><circle class="c" cx="65" cy="67.5" r="57.5"/><path class="d" d="M31.48,83.38q.75-2.82,1.54-5.67c4.53,1.17,9.08,2.37,13.62,3.59q-.86,3.18-1.66,6.35c-.78,3.08.12,5,2.65,5.7s4.16-.47,4.95-3.59c.37-1.46.75-2.91,1.13-4.37.93-3.6,1-6.14.23-7.61s-3-2.7-6.79-3.67Q48.56,69.05,50,64l2.43.62A7.28,7.28,0,0,0,57,64.34a4.41,4.41,0,0,0,2.75-3.06q.72-2.56,1.43-5.13c.8-2.85.12-4.56-2-5.11q-3.45-.87-4.79,3.71c-.39,1.31-.77,2.63-1.15,3.94Q46.58,57,40,55.52C41.72,49.14,44.4,44.6,47.88,42s8.28-3.26,14.58-1.62c5.2,1.35,8.95,3.7,11.22,6.92s2.71,7.67,1.23,13.31a22.9,22.9,0,0,1-3.62,8,10.86,10.86,0,0,1-7,3.85,9.18,9.18,0,0,1,4.56,6.68,26.18,26.18,0,0,1-1,9.85q-2.73,10.35-7.67,14.14c-3.31,2.51-8.16,2.77-14.74.76-5.58-1.71-9.65-4.33-12.15-7.76S30.13,88.49,31.48,83.38Z" transform="translate(-8.5 -9.5)"/><path class="d" d="M74.16,81.12c3-11.36,6.11-22.73,8.84-34,10.37,3,20.91,6.24,31.55,9.46q-1.22,5.52-2.63,11.1C105.17,65.81,98.43,63.9,91.73,62c-.77,3.07-1.57,6.15-2.38,9.24l.16,0a12.7,12.7,0,0,1,8.08-.4c9.7,2.68,13.33,8.76,10.34,18.59-.86,2.85-1.75,5.71-2.65,8.58a37.89,37.89,0,0,1-5.13,10.77,15.17,15.17,0,0,1-7.46,5.75c-2.94,1-6.43,1-10.53-.09-5.36-1.41-9.2-3.92-11.5-7.41s-2.8-7.92-1.39-13.29l1.44-5.46c4.52,1.22,9,2.43,13.52,3.6l-1.66,6c-.88,3.17-.08,5.08,2.38,5.71s4.14-.64,5.06-3.8c1.31-4.52,2.61-9,3.88-13.53.88-3.14,0-5-2.48-5.69s-4.22.57-5.09,3.72Q80.26,82.76,74.16,81.12Z" transform="translate(-8.5 -9.5)"/></svg>