<svg xmlns="http://www.w3.org/2000/svg" xmlns:xlink="http://www.w3.org/1999/xlink" viewBox="0 0 141 141"><defs><style>.a,.b,.c,.d{stroke-miterlimit:10;}.a{fill:url(#a);stroke:url(#b);}.b,.c{fill:none;opacity:0.6;}.b,.c,.d{stroke:#fff;}.b{stroke-width:5px;}.c{stroke-width:3px;}</style><radialGradient id="a" cx="63" cy="63" fx="55.41055570374086" fy="54.53820578463143" r="70.88" gradientUnits="userSpaceOnUse"><stop offset="0" stop-color="#b1d1fb"/><stop offset="0.46" stop-color="#0b6ffa"/><stop offset="0.7" stop-color="#0846aa"/><stop offset="1" stop-color="#151538"/></radialGradient><linearGradient id="b" x1="9.44" y1="35.24" x2="131.56" y2="105.76" gradientUnits="userSpaceOnUse"><stop offset="0" stop-color="#b8d2f5"/><stop offset="0.51" stop-color="#151538"/></linearGradient></defs><title>ball_09</title><circle class="a" cx="70.5" cy="70.5" r="70"/><circle class="b" cx="64.75" cy="67.25" r="50.75"/><circle class="c" cx="65" cy="67.5" r="57.5"/><path class="d" d="M93.09,66.29c-2.67,10.27-5.75,20.94-8.85,31.79-1.4,4.89-4,8.49-7.62,10.61s-8.06,2.4-13.39.62c-10.52-3.71-15-10.74-12.44-20.64C55,90,59.21,91.23,63.4,92.45c-.88,3.43,0,5.52,2.44,6.27s4.17-.65,5.09-4.13c.61-2.35,1.24-4.7,1.87-7l-.12-.2a8.15,8.15,0,0,1-4,1.91,12,12,0,0,1-4.81-.54c-4.83-1.38-7.84-3.75-9-7s-1.06-7.46.29-12.77c1.14-4,2.31-8.06,3.48-12.13,1.41-4.89,4-8.49,7.65-10.63s8.06-2.44,13.39-.68a23.12,23.12,0,0,1,8.66,5A16.12,16.12,0,0,1,93,57.84,15.63,15.63,0,0,1,93.09,66.29ZM75.38,76c1.34-5,2.67-10,3.94-14.94.68-2.66-.08-4.32-2.26-5s-3.6.4-4.31,3.09q-2,7.5-4,15-1.08,4,2.24,4.92T75.38,76Z" transform="translate(-8.5 -9.5)"/></svg>