<svg xmlns="http://www.w3.org/2000/svg" xmlns:xlink="http://www.w3.org/1999/xlink" viewBox="0 0 141 141"><defs><style>.a,.b,.c,.d{stroke-miterlimit:10;}.a{fill:url(#a);stroke:url(#b);}.b,.c{fill:none;opacity:0.6;}.b,.c,.d{stroke:#fff;}.b{stroke-width:5px;}.c{stroke-width:3px;}</style><radialGradient id="a" cx="63" cy="63" fx="55.41055570374086" fy="54.53820578463143" r="70.88" gradientUnits="userSpaceOnUse"><stop offset="0" stop-color="#b1d1fb"/><stop offset="0.46" stop-color="#0b6ffa"/><stop offset="0.7" stop-color="#0846aa"/><stop offset="1" stop-color="#151538"/></radialGradient><linearGradient id="b" x1="9.44" y1="35.24" x2="131.56" y2="105.76" gradientUnits="userSpaceOnUse"><stop offset="0" stop-color="#b8d2f5"/><stop offset="0.51" stop-color="#151538"/></linearGradient></defs><title>ball_47</title><circle class="a" cx="70.5" cy="70.5" r="70"/><circle class="b" cx="64.75" cy="67.25" r="50.75"/><circle class="c" cx="65" cy="67.5" r="57.5"/><path class="d" d="M30.12,86.32q1.56-6.18,3.36-12.47a93.69,93.69,0,0,0,11.23-16,118.67,118.67,0,0,0,8.83-18.61q6.89,1.65,13.9,3.55A68.33,68.33,0,0,1,56.91,61.22,106.52,106.52,0,0,1,41,77.67q5.1,1.33,10.21,2.71c.75-2.81,1.51-5.62,2.29-8.45a57.69,57.69,0,0,0,7.58-7.69A44.89,44.89,0,0,0,66.72,56L72,57.42c-2.37,8.89-4.81,17.78-7.15,26.64l4.74,1.28c-1,3.75-2,7.48-2.93,11.22l-4.7-1.31q-1.48,5.85-2.85,11.68-6.64-2-13.39-4,1.24-5.72,2.68-11.49C42.29,89.72,36.21,88,30.12,86.32Z" transform="translate(-8.5 -9.5)"/><path class="d" d="M77.71,58.14q1.53-5.85,3-11.68c11.77,3.37,23.76,7,35.86,10.62q-1.1,5-2.36,10c-2,1.87-3.66,3.52-4.93,4.92a74.75,74.75,0,0,0-8.16,10.41A127.05,127.05,0,0,0,93.85,94.7a123.3,123.3,0,0,0-5.67,12.81c-.27.73-.6,1.66-1,2.8s-.9,2.5-1.45,4.06q-7.11-1.83-14.36-3.88c.45-1.57,1.19-3.73,2.25-6.5a87.16,87.16,0,0,1,9-17.55,181.72,181.72,0,0,1,13.2-17.09c.49-.59,1.11-1.29,1.86-2.11s1.6-1.77,2.54-2.83C92.7,62.3,85.18,60.19,77.71,58.14Z" transform="translate(-8.5 -9.5)"/></svg>