<svg xmlns="http://www.w3.org/2000/svg" xmlns:xlink="http://www.w3.org/1999/xlink" viewBox="0 0 141 141"><defs><style>.a,.b,.c,.d{stroke-miterlimit:10;}.a{fill:url(#a);stroke:url(#b);}.b,.c{fill:none;opacity:0.6;}.b,.c,.d{stroke:#fff;}.b{stroke-width:5px;}.c{stroke-width:3px;}</style><radialGradient id="a" cx="63" cy="63" fx="55.41055570374086" fy="54.53820578463143" r="70.88" gradientUnits="userSpaceOnUse"><stop offset="0" stop-color="#b1d1fb"/><stop offset="0.46" stop-color="#0b6ffa"/><stop offset="0.7" stop-color="#0846aa"/><stop offset="1" stop-color="#151538"/></radialGradient><linearGradient id="b" x1="9.44" y1="35.24" x2="131.56" y2="105.76" gradientUnits="userSpaceOnUse"><stop offset="0" stop-color="#b8d2f5"/><stop offset="0.51" stop-color="#151538"/></linearGradient></defs><title>ball_27</title><circle class="a" cx="70.5" cy="70.5" r="70"/><circle class="b" cx="64.75" cy="67.25" r="50.75"/><circle class="c" cx="65" cy="67.5" r="57.5"/><path class="d" d="M40.49,58.05c.5-1.61,1-3.21,1.51-4.83,2.27-6.11,5.21-10.32,8.68-12.54s8-2.64,13.84-1.09c5.21,1.39,8.9,3.93,11.07,7.52s2.59,8.11,1.17,13.53a22.12,22.12,0,0,1-4.51,9.17,29.63,29.63,0,0,1-7.38,5.86q-4.41,2.55-9,5.14a36.89,36.89,0,0,0-7.75,5.71A13,13,0,0,0,46.89,88a11.78,11.78,0,0,0-1.06,1.53c7.1,2,14.17,4,21.19,5.92q-1.51,5.83-2.92,11.66c-11.6-3.34-23.43-6.94-35.37-10.52.26-1.21.53-2.43.8-3.66,1.58-5.71,4-10.14,7-13.28a53.2,53.2,0,0,1,11.95-9,92.21,92.21,0,0,0,10.16-6.46Q61.4,62,62.81,57c1.08-3.9.35-6.19-2.15-6.85s-4.33,1-5.47,4.88q-.9,3.12-1.79,6.23Q46.92,59.59,40.49,58.05Z" transform="translate(-8.5 -9.5)"/><path class="d" d="M78.76,57.13q1.51-5.85,2.93-11.67c11.77,3.38,23.76,7,35.86,10.62q-1.06,5-2.32,10c-2,1.87-3.64,3.52-4.92,4.92a75.83,75.83,0,0,0-8.15,10.39,128,128,0,0,0-7.25,12.31,122.23,122.23,0,0,0-5.7,12.79l-1,2.8-1.46,4.06q-7.09-1.83-14.35-3.86c.46-1.57,1.21-3.73,2.27-6.5a88.13,88.13,0,0,1,9.08-17.56A184.81,184.81,0,0,1,96.91,68.35c.49-.59,1.11-1.3,1.86-2.12s1.59-1.76,2.53-2.82C93.75,61.3,86.23,59.18,78.76,57.13Z" transform="translate(-8.5 -9.5)"/></svg>