<svg xmlns="http://www.w3.org/2000/svg" xmlns:xlink="http://www.w3.org/1999/xlink" viewBox="0 0 141 141"><defs><style>.a,.b,.c,.d{stroke-miterlimit:10;}.a{fill:url(#a);stroke:url(#b);}.b,.c{fill:none;opacity:0.6;}.b,.c,.d{stroke:#fff;}.b{stroke-width:5px;}.c{stroke-width:3px;}</style><radialGradient id="a" cx="63" cy="63" fx="55.41055570374086" fy="54.53820578463143" r="70.88" gradientUnits="userSpaceOnUse"><stop offset="0" stop-color="#b1d1fb"/><stop offset="0.46" stop-color="#0b6ffa"/><stop offset="0.7" stop-color="#0846aa"/><stop offset="1" stop-color="#151538"/></radialGradient><linearGradient id="b" x1="9.44" y1="35.24" x2="131.56" y2="105.76" gradientUnits="userSpaceOnUse"><stop offset="0" stop-color="#b8d2f5"/><stop offset="0.51" stop-color="#151538"/></linearGradient></defs><title>ball_45</title><circle class="a" cx="70.5" cy="70.5" r="70"/><circle class="b" cx="64.75" cy="67.25" r="50.75"/><circle class="c" cx="65" cy="67.5" r="57.5"/><path class="d" d="M30.14,86.32q1.59-6.18,3.39-12.47a93.77,93.77,0,0,0,11.22-16A116.63,116.63,0,0,0,53.54,39.2c4.59,1.1,9.23,2.3,13.91,3.56A68.34,68.34,0,0,1,57,61.19,106.18,106.18,0,0,1,41,77.66q5.1,1.34,10.21,2.71,1.13-4.22,2.3-8.46a58.3,58.3,0,0,0,7.58-7.69A45.66,45.66,0,0,0,66.76,56L72,57.39C69.62,66.28,67.19,75.18,64.84,84l4.74,1.28c-1,3.75-2,7.49-2.94,11.22l-4.71-1.31q-1.49,5.86-2.87,11.7-6.66-2-13.41-4,1.29-5.72,2.73-11.5Q39.29,88.85,30.14,86.32Z" transform="translate(-8.5 -9.5)"/><path class="d" d="M74.18,81.13c3-11.36,6.1-22.72,8.83-34,10.38,3,20.93,6.24,31.57,9.45q-1.22,5.52-2.64,11.11c-6.75-1.87-13.48-3.77-20.19-5.65-.77,3.07-1.57,6.14-2.38,9.23l.16,0a12.61,12.61,0,0,1,8.07-.4c9.71,2.67,13.33,8.75,10.34,18.58-.86,2.85-1.75,5.71-2.65,8.59a38,38,0,0,1-5.14,10.76,15.17,15.17,0,0,1-7.46,5.75c-2.94,1-6.43,1-10.53-.09-5.36-1.4-9.2-3.91-11.49-7.4s-2.79-7.92-1.38-13.29q.7-2.73,1.44-5.46c4.52,1.22,9,2.43,13.52,3.6q-.84,3-1.67,6c-.88,3.16-.08,5.08,2.38,5.71S89.1,103,90,99.85q2-6.78,3.88-13.53c.89-3.13,0-5-2.47-5.68s-4.22.57-5.09,3.72Q80.27,82.77,74.18,81.13Z" transform="translate(-8.5 -9.5)"/></svg>